 <svg  version="1.0" xmlns="http://www.w3.org/2000/svg"  width="300.000000pt" height="336.000000pt" viewBox="0 0 300.000000 336.000000"  preserveAspectRatio="xMidYMid meet">  <g transform="translate(0.000000,336.000000) scale(0.100000,-0.100000)" fill="#ffffff" stroke="none"> <path d="M1791 3301 c-12 -8 -9 -24 18 -98 17 -48 37 -128 44 -176 7 -49 15 -85 19 -82 4 4 4 -2 1 -14 -3 -12 0 -35 7 -52 13 -31 13 -31 25 -9 13 24 8 73 -6 64 -5 -3 -9 2 -9 10 0 8 4 17 9 20 11 7 53 -107 46 -126 -6 -14 59 -214 154 -477 45 -126 48 -143 26 -161 -13 -11 -14 -10 -9 3 4 11 -5 20 -29 32 -18 8 -47 30 -64 48 -29 31 -31 39 -58 242 -15 116 -31 232 -36 259 -7 35 -6 52 2 57 13 7 4 29 -12 29 -11 0 -5 -188 9 -262 6 -27 6 -48 1 -48 -5 0 -9 7 -9 17 0 9 -2 14 -5 11 -5 -4 27 -297 43 -403 l8 -50 8 55 c8 52 9 53 17 25 14 -49 18 -85 8 -79 -5 3 -9 13 -10 22 -1 25 -17 -28 -17 -58 0 -22 1 -22 8 5 6 22 8 24 9 9 0 -12 4 -37 7 -55 l7 -34 -23 29 c-27 33 -56 146 -65 250 -3 39 -8 82 -11 94 -4 17 -1 22 8 16 10 -6 11 -5 1 7 -8 10 -12 69 -13 184 -1 225 -2 235 -12 235 -4 0 -8 -19 -8 -42 -1 -24 -9 -97 -19 -163 l-18 -120 -29 50 c-16 27 -40 61 -54 75 -28 29 -190 120 -213 120 -32 0 -123 35 -135 52 -18 25 -35 23 -20 -3 12 -18 10 -23 -15 -40 -15 -12 -25 -25 -21 -30 3 -5 -4 -9 -15 -9 -11 0 -22 -4 -26 -9 -3 -6 -14 -8 -25 -6 -13 3 -24 -4 -31 -18 -10 -21 -10 -21 5 -3 26 32 19 9 -24 -77 -22 -45 -41 -93 -43 -107 -1 -14 -6 -31 -11 -39 -5 -7 -11 -45 -14 -82 -4 -65 -15 -83 -36 -61 -4 4 -11 7 -14 8 -93 14 -108 24 -72 46 11 7 20 17 20 22 0 9 39 46 49 46 4 0 15 15 26 33 13 23 15 29 3 20 -8 -7 -17 -11 -20 -8 -2 3 -28 -25 -57 -61 l-53 -65 11 -47 c6 -26 13 -68 17 -95 6 -48 17 -66 29 -47 3 5 18 10 32 10 25 0 25 -1 19 -53 -6 -42 -4 -56 8 -66 14 -11 14 -16 1 -41 -10 -19 -11 -30 -3 -38 15 -15 -1 -55 -20 -50 -10 3 -169 42 -354 89 l-338 84 0 362 0 363 65 0 c76 0 81 -6 60 -70 -14 -43 -14 -32 0 35 l6 30 -16 -25 c-11 -19 -14 -41 -10 -95 8 -94 26 -218 34 -227 3 -4 7 52 8 125 2 201 7 226 60 286 24 28 42 51 38 51 -4 0 7 12 24 26 17 14 29 30 26 35 -4 5 0 6 8 3 8 -3 18 0 23 7 5 8 3 10 -6 4 -9 -5 -11 -4 -6 4 5 7 12 9 19 3 17 -13 93 -14 152 -2 65 13 103 2 172 -51 39 -31 61 -57 79 -98 14 -31 32 -69 40 -85 9 -18 11 -33 5 -39 -12 -12 -66 0 -82 19 -15 18 -33 18 -22 0 18 -31 75 -88 81 -81 4 4 -1 12 -11 19 -9 7 -17 17 -17 22 0 4 5 3 12 -4 22 -22 44 -12 92 43 26 30 43 55 37 55 -5 0 -19 -12 -30 -26 l-21 -26 -20 23 c-10 13 -19 28 -20 32 0 4 37 7 83 6 45 0 198 0 340 0 221 1 257 3 257 16 0 13 -43 15 -329 15 l-329 0 -29 38 c-36 49 -88 94 -144 127 -24 13 -37 25 -29 25 18 0 52 -21 100 -64 l35 -31 -30 33 c-57 64 -87 75 -173 68 -42 -3 -111 -8 -153 -9 -70 -3 -80 -6 -127 -41 -29 -21 -52 -42 -52 -47 0 -6 -4 -8 -9 -5 -4 3 -17 -4 -27 -17 -16 -18 -16 -19 -2 -8 15 11 18 11 18 0 0 -7 18 6 40 29 23 23 46 42 53 42 10 -1 -13 -24 -33 -32 -3 -2 -26 -28 -49 -58 -24 -30 -45 -54 -47 -52 -2 1 -42 2 -89 2 l-85 0 0 -1085 0 -1085 222 -2 223 -3 23 -80 c12 -44 29 -115 36 -158 8 -42 19 -83 25 -91 9 -11 -4 -28 -67 -83 -43 -38 -99 -84 -125 -103 -26 -18 -45 -35 -42 -38 5 -5 78 47 83 60 2 4 13 8 23 8 12 0 17 4 13 11 -4 7 0 9 13 5 13 -4 25 0 34 11 13 16 12 17 -4 4 -36 -28 -26 -3 13 33 25 23 40 31 40 22 0 -8 -7 -22 -16 -30 -8 -9 -11 -16 -6 -16 5 0 30 22 55 49 25 27 48 47 50 45 2 -3 10 4 18 13 13 16 12 17 -3 5 -9 -7 -19 -9 -21 -5 -12 20 30 48 87 58 38 8 47 -3 22 -24 -15 -13 -18 -54 -4 -45 5 3 6 10 2 15 -3 6 2 19 12 30 9 10 14 22 11 25 -4 4 28 22 71 41 42 19 93 42 111 52 19 9 38 15 42 14 4 -1 13 5 21 14 11 14 11 16 -2 8 -8 -5 3 9 25 30 40 39 42 40 117 41 75 1 78 2 124 43 26 22 51 41 56 41 5 0 6 5 3 10 -4 6 -12 7 -18 3 -7 -3 -3 3 7 15 11 12 17 24 15 27 -3 2 -22 -16 -43 -40 -20 -25 -41 -43 -46 -40 -4 3 -15 2 -24 -1 -12 -5 -13 -10 -5 -25 7 -14 6 -19 -3 -19 -7 0 -24 -3 -38 -7 -22 -6 -23 -5 -12 10 8 9 19 15 25 13 7 -1 9 -1 5 1 -4 2 -4 12 -1 21 6 17 -9 7 -55 -36 -16 -14 -56 -16 -47 -2 4 6 11 7 17 4 6 -4 8 -3 5 3 -9 14 47 53 76 53 13 0 56 24 96 55 40 30 76 55 81 55 4 0 13 13 18 29 7 21 7 32 -2 42 -11 12 0 26 60 83 52 48 74 63 74 51 0 -10 -23 -39 -50 -64 -28 -26 -48 -50 -44 -54 4 -4 12 -3 19 1 6 4 3 0 -7 -9 -9 -9 -16 -26 -15 -38 1 -19 3 -19 34 11 17 17 31 34 30 37 -3 11 101 102 107 93 3 -4 -40 -53 -95 -108 -54 -54 -99 -92 -99 -85 0 8 -3 11 -7 7 -5 -4 1 -14 11 -22 14 -10 23 -11 33 -3 17 14 17 -2 1 -21 -7 -8 -1 -4 15 9 l27 24 0 -23 0 -24 30 29 c17 16 30 34 30 39 -1 6 -11 -2 -24 -17 -18 -22 -25 -25 -29 -14 -5 15 72 102 149 167 22 19 33 29 24 22 -60 -45 13 48 166 212 l82 88 27 -87 c47 -154 83 -259 99 -290 l16 -30 -1 50 c-1 28 -5 61 -10 75 -7 19 -8 13 -5 -25 3 -48 3 -49 -9 -20 -7 18 -10 47 -6 72 l6 42 68 -109 c74 -119 97 -167 90 -190 -4 -12 -3 -12 5 -2 7 11 10 11 15 -3 6 -14 -28 -16 -401 -14 l-407 1 -118 -116 c-72 -72 -115 -122 -111 -129 4 -7 4 -9 0 -5 -4 4 -40 -21 -79 -54 -67 -56 -182 -128 -203 -128 -5 1 0 8 11 18 11 9 31 32 43 50 13 18 28 30 33 26 5 -3 6 -11 3 -17 -4 -7 -3 -8 2 -4 9 8 10 12 13 38 0 6 9 8 19 5 16 -6 16 -5 0 7 -16 13 -16 15 0 32 12 13 13 15 2 9 -8 -5 -19 -9 -25 -9 -5 0 -9 -10 -9 -22 2 -27 -22 -38 -29 -14 -5 21 23 58 49 63 23 4 24 22 2 26 -9 2 -32 -19 -54 -48 -21 -27 -41 -50 -45 -50 -5 0 -25 -16 -46 -35 -25 -24 -31 -34 -18 -30 18 6 19 5 3 -7 -15 -13 -15 -15 0 -26 15 -11 15 -12 -3 -9 -14 1 -20 -4 -20 -18 0 -14 -13 -26 -40 -38 -42 -20 -208 -77 -211 -74 -5 5 25 35 69 71 49 40 63 39 25 -1 -12 -13 -19 -25 -16 -29 3 -3 15 7 25 23 22 31 35 63 27 63 -10 0 -119 -87 -140 -113 -17 -19 -40 -28 -111 -41 -50 -9 -97 -14 -106 -11 -8 4 -18 2 -22 -4 -18 -30 218 10 344 58 l52 19 70 -35 c67 -33 71 -34 94 -19 33 21 32 59 0 84 -32 25 -31 27 5 42 27 11 37 9 120 -30 49 -24 90 -47 90 -52 0 -4 6 -8 13 -8 15 0 47 61 47 88 0 20 -28 54 -65 78 -36 23 -31 34 13 29 42 -4 101 -8 120 -6 7 1 12 15 12 36 0 26 -7 43 -26 60 l-27 25 104 100 104 99 473 1 472 0 0 1085 0 1085 -77 0 -78 0 -32 63 c-34 65 -103 176 -103 165 0 -7 44 -172 55 -207 6 -21 4 -21 -147 -21 l-154 0 -71 103 c-65 94 -98 154 -136 249 -12 28 -28 43 -66 62 -58 30 -52 28 -70 17z m58 -42 c6 -18 6 -29 0 -29 -5 0 -9 5 -9 11 0 5 -5 7 -10 4 -6 -4 -10 -3 -9 2 4 24 -2 43 -13 37 -7 -4 -8 -3 -4 4 11 18 34 3 45 -29z m62 -64 c12 -35 27 -61 32 -58 6 3 7 1 3 -6 -9 -14 2 -53 13 -46 10 6 67 -120 62 -138 -1 -5 3 -6 8 -3 6 4 4 20 -5 41 -18 44 -10 46 12 3 9 -17 20 -36 25 -42 5 -6 25 -32 45 -58 l35 -48 154 0 153 0 16 -42 c8 -24 27 -81 40 -128 53 -179 117 -385 122 -389 13 -14 -12 90 -61 244 -26 84 -31 110 -15 85 9 -13 10 -13 10 0 0 8 -5 22 -10 30 -9 13 -10 13 -11 0 0 -15 -19 29 -33 80 -6 20 -5 22 4 10 10 -13 11 -12 6 3 -3 10 -6 23 -6 28 0 6 -5 7 -12 3 -8 -5 -9 -2 -5 9 8 22 -2 49 -16 40 -6 -4 -8 0 -4 11 4 10 3 15 -3 11 -6 -3 -11 0 -11 7 -4 38 -8 56 -18 82 -8 19 -8 33 -2 39 18 18 137 -248 127 -285 -3 -12 -1 -27 3 -32 5 -6 11 -20 14 -31 4 -19 5 -18 6 2 0 12 -3 25 -9 28 -12 8 -13 25 -1 25 15 0 28 -53 21 -85 -7 -31 13 -172 26 -183 3 -4 3 18 -1 48 -5 30 -9 87 -10 125 -2 58 -10 86 -44 163 -22 51 -41 95 -41 98 0 2 25 4 55 4 l55 0 -1 -397 c-2 -374 -3 -396 -18 -363 -9 19 -24 44 -33 54 -10 10 -15 23 -12 28 3 4 0 8 -6 8 -6 0 -9 4 -5 9 3 6 -1 13 -8 18 -7 4 -22 23 -32 41 -11 17 -23 32 -28 32 -4 0 -6 4 -3 8 3 5 -4 18 -14 30 -11 12 -20 26 -20 32 0 5 -4 10 -8 10 -5 0 -16 16 -25 35 -9 19 -21 35 -26 35 -5 0 -11 6 -14 13 -11 28 23 12 37 -17 8 -18 37 -61 65 -98 27 -37 47 -69 43 -72 -3 -3 -1 -6 4 -6 6 0 20 -18 33 -40 12 -22 26 -40 32 -40 5 0 9 -7 9 -15 0 -8 5 -15 10 -15 6 0 10 3 10 8 -2 20 -468 687 -479 684 -7 -1 -23 9 -35 23 -12 14 -29 25 -39 25 -10 0 -22 12 -27 26 -13 32 -12 37 0 29 11 -7 14 8 3 19 -4 3 -12 -3 -19 -15 -10 -20 -12 -18 -29 29 -14 37 -22 49 -34 45 -13 -4 -13 -3 -2 5 17 12 6 49 -18 57 -11 3 -31 40 -54 100 -42 109 -42 106 -23 99 8 -3 24 -34 37 -69z m-18 -60 c15 -38 63 -169 108 -290 45 -121 88 -232 95 -247 12 -22 12 -28 2 -29 -9 0 -9 -2 -2 -5 7 -3 10 -13 7 -22 -5 -22 25 -94 37 -87 15 10 42 -65 29 -81 -6 -7 -9 -19 -6 -26 4 -8 6 -7 6 5 1 9 5 17 10 17 15 0 19 -24 7 -35 -15 -13 -36 -17 -35 -7 4 25 -2 72 -10 68 -4 -3 -6 7 -4 22 3 19 2 23 -5 14 -7 -11 -11 -8 -16 12 -3 14 -11 38 -18 53 -6 15 -13 41 -15 58 -3 16 -11 45 -20 65 -19 45 -129 345 -199 545 l-14 40 5 -35 c7 -44 16 -164 9 -130 -21 119 -24 143 -19 161 9 28 18 17 48 -66z m67 -89 c0 -3 -4 -8 -10 -11 -5 -3 -10 -1 -10 4 0 6 5 11 10 11 6 0 10 -2 10 -4z m474 -52 c3 -8 2 -12 -4 -9 -6 3 -10 10 -10 16 0 14 7 11 14 -7z m-557 -26 c-3 -8 -6 -5 -6 6 -1 11 2 17 5 13 3 -3 4 -12 1 -19z m-677 -85 c12 -11 12 -13 -1 -13 -9 0 -21 12 -28 28 -9 22 -9 24 2 12 7 -8 19 -21 27 -27z m697 15 c-3 -8 -6 -5 -6 6 -1 11 2 17 5 13 3 -3 4 -12 1 -19z m121 4 c6 -18 -15 -14 -22 4 -4 10 -1 14 6 12 6 -2 14 -10 16 -16z m19 -14 c-3 -8 -6 -5 -6 6 -1 11 2 17 5 13 3 -3 4 -12 1 -19z m-12 -28 c-3 -5 -2 -10 4 -10 5 0 11 6 14 13 3 8 8 5 13 -8 5 -11 19 -20 30 -20 18 0 75 -80 288 -403 l266 -403 0 -650 0 -649 -40 0 c-36 0 -40 3 -58 43 -10 23 -61 110 -112 192 -52 83 -112 185 -134 227 l-41 77 27 28 c15 15 33 40 41 55 7 15 40 55 73 90 l59 64 45 -11 c27 -7 40 -14 33 -18 -7 -5 -21 -3 -32 3 -24 12 -41 13 -41 1 0 -5 16 -12 36 -16 29 -5 41 -2 55 12 17 17 16 23 -31 146 -27 71 -52 147 -54 169 -3 23 -10 45 -17 48 -8 6 -8 9 1 15 8 5 9 23 5 58 -4 27 -7 69 -6 91 0 34 -5 45 -31 67 -30 25 -31 27 -15 50 27 38 22 66 -14 73 -17 3 -42 6 -54 6 -23 0 -35 21 -39 65 -4 40 -28 95 -38 89 -6 -4 -8 -2 -5 3 8 12 -11 73 -22 73 -5 0 -41 90 -82 200 -47 129 -76 195 -80 183 -5 -14 -7 -13 -12 9 -4 16 -13 25 -23 24 -9 0 -19 5 -21 12 -3 6 0 12 7 12 6 0 8 -4 5 -10z m148 -72 c11 -17 13 -28 6 -28 -6 0 -13 9 -16 20 -3 11 -10 20 -15 20 -5 0 -6 5 -3 11 4 6 8 9 9 7 1 -2 10 -15 19 -30z m-118 12 c4 -6 11 -8 16 -5 12 8 11 -2 -3 -28 -10 -19 -9 -20 4 -9 13 10 17 10 22 -4 3 -9 2 -22 -3 -28 -6 -7 -2 -24 10 -46 15 -27 18 -29 14 -10 -5 19 -4 21 4 10 6 -8 8 -25 4 -37 -3 -14 -1 -23 7 -23 6 0 10 -6 8 -12 -3 -7 1 -19 9 -26 20 -21 16 -34 -7 -22 -11 6 -23 23 -27 38 -3 15 -13 33 -20 41 -8 7 -12 19 -9 27 3 7 0 14 -6 16 -6 2 -12 13 -13 24 -1 10 -7 30 -14 43 -8 14 -9 21 -2 17 17 -11 13 5 -6 26 -9 10 -11 18 -5 18 6 0 14 -5 17 -10z m-565 -41 c30 -11 64 -21 75 -22 30 -4 124 -60 118 -71 -3 -5 -1 -6 5 -2 20 12 60 -24 98 -85 19 -33 40 -59 45 -59 5 0 9 -7 9 -15 0 -19 4 -19 -54 10 -27 14 -46 25 -41 25 4 0 1 8 -8 18 -10 10 -16 21 -15 23 2 2 1 3 -1 2 -2 -2 -15 14 -27 35 -13 20 -24 32 -24 26 0 -6 11 -28 25 -49 15 -20 23 -40 19 -44 -4 -3 -9 -1 -11 6 -2 7 -11 9 -20 6 -11 -4 -14 -2 -9 5 4 6 -4 33 -18 60 -14 27 -22 53 -18 57 4 4 -2 5 -13 3 -13 -2 -19 2 -17 10 1 8 -2 11 -8 7 -5 -3 -10 0 -10 8 0 7 -7 14 -15 14 -13 0 -12 -4 2 -21 10 -12 21 -23 24 -26 16 -14 70 -102 66 -107 -3 -2 -14 0 -25 6 -12 6 -34 11 -50 11 -17 0 -37 9 -52 25 -12 13 -26 22 -31 19 -4 -2 -12 3 -17 12 -6 11 -11 13 -16 5 -4 -6 0 -14 8 -17 9 -3 16 -12 16 -19 0 -8 6 -20 13 -27 7 -7 28 -37 47 -65 18 -29 35 -52 37 -50 6 6 -34 74 -60 103 -27 28 -34 44 -20 44 4 0 28 -19 52 -42 25 -24 37 -33 27 -20 -14 16 -16 22 -5 22 15 -1 69 -29 56 -30 -4 0 11 -36 34 -80 23 -43 45 -77 50 -75 10 7 52 -62 46 -78 -2 -7 -10 0 -17 16 -7 15 -17 27 -22 27 -5 0 0 -14 12 -30 12 -17 26 -27 32 -23 7 4 9 1 6 -8 -3 -8 5 -28 18 -44 13 -17 24 -27 24 -23 0 24 -84 180 -114 212 -29 31 -34 42 -24 53 9 11 9 13 -1 11 -7 -2 -20 7 -28 20 -20 29 -3 29 45 -1 52 -33 82 -49 82 -43 0 3 -12 12 -27 20 -16 8 -22 15 -14 16 7 0 31 -10 52 -22 l39 -22 0 -135 c0 -75 5 -177 10 -226 10 -97 63 -322 80 -339 16 -16 23 0 10 24 -7 13 -13 32 -14 44 -2 11 -6 32 -10 46 -6 20 -5 22 4 10 10 -13 11 -12 6 3 -3 10 -6 24 -6 30 0 7 -5 6 -11 -3 -8 -12 -9 -10 -4 7 9 31 -5 79 -17 61 -8 -10 -9 -9 -5 4 3 9 -1 37 -9 64 -22 75 -32 394 -14 474 5 25 14 68 19 95 9 46 9 44 3 -15 -11 -99 -6 -406 7 -488 11 -71 50 -220 72 -275 9 -20 8 -31 -1 -42 -7 -9 -10 -18 -6 -22 3 -3 6 0 6 8 0 12 2 11 11 -1 9 -13 10 -13 6 2 -3 9 -1 18 4 20 5 2 1 29 -11 63 -30 86 -57 201 -64 265 l-5 55 18 -57 c21 -66 55 -124 76 -132 10 -3 15 -19 15 -46 0 -26 4 -39 10 -35 6 4 15 -7 21 -24 6 -17 15 -28 20 -25 13 7 11 -3 -3 -26 -9 -15 -10 -25 -2 -37 12 -20 7 -93 -6 -93 -16 0 -40 32 -40 53 0 104 -10 211 -20 221 -10 9 -11 -2 -4 -49 4 -33 8 -89 9 -125 0 -36 4 -71 9 -79 6 -10 4 -12 -11 -7 -26 8 -241 65 -275 72 -30 7 -44 43 -28 73 5 11 8 26 5 34 -3 7 -2 33 4 56 7 34 5 58 -10 112 -22 80 -24 110 -7 127 9 9 9 15 -1 25 -10 10 -11 9 -5 -6 4 -12 2 -16 -7 -12 -10 4 -13 21 -11 63 2 31 -1 52 -5 45 -4 -6 -8 30 -8 80 0 60 -5 99 -13 112 -9 13 -12 14 -9 4 3 -9 8 -38 11 -65 5 -46 5 -47 -5 -14 -21 70 -26 77 -24 35 1 -22 7 -50 13 -62 14 -26 16 -135 3 -113 -6 8 -7 18 -5 22 3 4 0 8 -6 8 -6 0 -8 5 -5 10 3 6 1 10 -4 10 -6 0 -10 4 -9 9 4 11 -69 101 -82 101 -4 0 4 -13 20 -30 15 -16 43 -58 61 -94 29 -55 35 -62 45 -48 11 14 12 13 11 -10 -1 -14 -5 -24 -9 -22 -4 3 -1 -14 7 -37 9 -23 13 -50 10 -60 -3 -9 4 -40 15 -68 11 -29 20 -68 19 -89 0 -36 -1 -35 -23 26 -32 84 -60 123 -131 181 -57 46 -116 77 -101 52 4 -6 14 -11 22 -11 8 0 14 -5 14 -12 0 -6 3 -8 7 -5 3 4 12 -1 19 -11 7 -9 16 -17 21 -17 4 -1 24 -16 43 -35 19 -18 28 -30 20 -25 -8 4 -3 -3 11 -16 34 -33 76 -122 87 -186 12 -70 -1 -87 -22 -27 -18 55 -20 76 -5 54 9 -13 10 -13 6 0 -2 8 -10 14 -17 12 -8 -2 -10 3 -6 13 3 9 2 13 -3 10 -11 -6 -21 6 -26 35 -6 29 -115 174 -115 152 0 -5 7 -15 14 -22 8 -6 24 -28 36 -48 l20 -37 -21 25 c-12 14 -24 25 -28 25 -24 2 -51 19 -51 32 0 14 3 13 21 -3 22 -19 22 -19 9 2 -11 18 -20 20 -66 16 -35 -3 -59 0 -69 8 -10 9 -15 9 -15 1 0 -6 -5 -11 -10 -11 -9 0 -60 -36 -144 -102 -12 -9 -25 -17 -30 -18 -16 -3 -26 25 -19 55 9 42 9 145 1 145 -5 0 -8 5 -8 11 0 6 7 8 16 5 12 -4 15 -2 10 9 -3 9 0 15 9 15 10 0 15 10 15 28 0 39 51 114 93 136 l35 18 79 -31 c76 -31 77 -31 30 -26 -63 8 -113 -9 -161 -54 -41 -39 -111 -139 -103 -148 9 -8 28 8 22 18 -4 5 -1 9 4 9 6 0 10 5 9 11 -2 6 6 16 17 22 11 7 43 27 71 45 28 18 71 40 95 48 24 8 32 13 17 11 -16 -3 -28 0 -28 5 0 5 -7 3 -15 -6 -9 -8 -33 -25 -55 -37 -22 -13 -40 -26 -40 -30 0 -4 -9 -9 -19 -12 -14 -3 -18 -1 -14 9 3 8 10 11 16 7 6 -3 7 -1 3 5 -4 7 2 16 16 21 13 5 30 17 38 27 25 29 74 44 109 34 18 -5 38 -7 46 -4 8 3 22 0 32 -6 16 -10 16 -11 -5 -7 -27 6 -20 -8 8 -16 11 -3 18 -1 14 4 -9 15 13 10 26 -7 8 -8 23 -20 34 -25 12 -5 1 8 -23 30 -25 22 -48 38 -53 35 -4 -3 -8 -1 -8 5 0 11 -71 46 -112 55 -16 4 -28 11 -28 17 0 6 -4 7 -10 4 -13 -8 -32 4 -25 15 3 5 16 5 31 0 17 -7 31 -7 42 0 14 9 14 10 -5 5 -12 -3 -24 -1 -28 5 -10 17 28 11 74 -11 24 -11 45 -18 48 -15 3 3 12 -1 20 -9 8 -8 21 -15 30 -15 11 0 9 5 -8 18 -53 39 -80 52 -113 52 -28 0 -36 5 -45 28 l-11 27 5 -27 c4 -20 1 -28 -9 -28 -8 0 -43 -33 -77 -72 -76 -89 -74 -87 -65 -63 5 11 9 25 10 30 5 19 20 50 26 55 4 3 29 30 56 60 41 46 54 55 79 53 30 -2 30 -2 -5 11 -37 13 -51 43 -28 57 10 6 10 9 1 9 -7 0 -13 5 -13 10 0 6 3 9 8 8 11 -3 55 23 48 29 -8 8 36 42 54 42 8 0 40 -9 70 -20z m736 -46 c16 -22 17 -33 3 -33 -5 0 -7 5 -4 10 3 6 2 10 -3 10 -6 0 -12 7 -16 15 -7 20 4 19 20 -2z m-916 -77 c6 -5 -8 -26 -32 -50 -22 -22 -44 -50 -49 -61 -8 -17 -9 -16 -4 6 2 15 19 58 37 95 27 58 32 65 36 44 2 -14 8 -29 12 -34z m760 -137 c34 -96 57 -169 52 -164 -8 9 -122 328 -122 342 0 19 16 -21 70 -178z m-133 149 c-3 -8 -6 -5 -6 6 -1 11 2 17 5 13 3 -3 4 -12 1 -19z m380 -74 c18 -27 38 -55 43 -61 6 -7 8 -13 4 -13 -4 0 1 -10 12 -21 13 -15 15 -21 4 -17 -8 2 -24 23 -36 45 -25 48 -63 104 -79 116 -6 5 -4 7 5 5 8 -2 30 -26 47 -54z m-577 -28 c0 -2 -7 -7 -16 -10 -8 -3 -12 -2 -9 4 6 10 25 14 25 6z m430 -22 c0 -12 -5 -11 -27 2 l-28 16 25 -20 c13 -11 28 -18 32 -16 8 5 22 -15 15 -22 -3 -3 -15 -1 -26 6 -12 6 -21 7 -21 1 0 -5 12 -14 28 -19 21 -8 23 -11 7 -11 -11 0 -25 3 -30 7 -14 10 -36 62 -30 71 8 13 55 0 55 -15z m-730 1 c14 -8 21 -14 15 -14 -5 0 -21 6 -35 14 -14 8 -20 14 -15 14 6 0 21 -6 35 -14z m453 -112 c2 -34 0 -60 -4 -57 -5 3 -9 33 -9 66 0 77 6 72 13 -9z m307 17 c19 -10 43 -67 31 -74 -4 -3 -6 -39 -6 -81 2 -75 1 -76 -21 -71 -17 5 -24 1 -29 -14 -3 -11 -10 -20 -15 -20 -16 0 -17 25 -3 58 8 19 13 43 11 55 -2 15 4 25 20 32 17 7 22 16 19 33 -2 12 0 22 5 22 5 0 6 5 3 10 -4 6 -11 8 -16 5 -5 -3 -6 1 -3 9 3 9 2 16 -4 16 -5 0 -12 7 -16 15 -6 18 -1 19 24 5z m-241 -109 c2 -54 -6 -32 -12 34 -4 39 -3 50 2 30 5 -16 9 -45 10 -64z m304 -26 c14 -39 14 -45 1 -45 -16 0 -20 8 -28 63 -6 49 8 39 27 -18z m-1183 17 c0 -13 3 -12 15 4 14 18 14 17 4 -8 -10 -23 -15 -26 -27 -15 -13 10 -14 9 -2 -9 10 -16 10 -25 1 -40 -10 -15 -11 -15 -7 -2 3 10 1 20 -5 24 -6 3 -9 16 -7 27 1 12 -1 27 -5 34 -5 7 -1 9 13 6 11 -3 20 -12 20 -21z m48 -42 c0 -27 -3 -52 -8 -55 -6 -3 -7 0 -4 8 3 8 -1 14 -10 14 -8 0 -12 -6 -9 -13 5 -13 -15 -30 -24 -21 -5 5 44 117 51 117 1 0 3 -22 4 -50z m855 0 c3 -11 1 -18 -3 -15 -5 3 -11 -5 -13 -17 -3 -18 -5 -16 -6 8 -1 26 5 44 15 44 1 0 4 -9 7 -20z m47 -53 c0 -10 5 -15 11 -12 6 4 8 13 5 21 -4 11 -2 12 14 4 10 -5 22 -15 25 -20 4 -6 11 -8 16 -4 5 3 8 2 7 -3 -1 -4 4 -19 11 -32 20 -36 26 -132 10 -177 -7 -21 -12 -48 -11 -59 2 -15 1 -17 -6 -7 -7 11 -10 10 -15 -3 -4 -9 -3 -13 3 -10 13 8 13 -1 0 -44 l-9 -34 24 23 c13 12 27 37 31 54 8 31 8 31 20 -19 l11 -50 8 53 c4 29 11 54 14 57 17 10 59 -45 75 -98 10 -32 20 -57 22 -54 2 2 -3 23 -11 47 -8 24 -14 45 -12 47 2 2 14 -24 26 -58 13 -33 20 -63 17 -66 -3 -4 -6 0 -6 7 0 7 -2 11 -5 8 -8 -8 35 -118 46 -118 12 0 12 5 -6 47 -20 46 -19 66 2 29 18 -34 26 -96 12 -96 -14 0 -147 38 -159 45 -5 3 -10 1 -10 -4 0 -6 -5 -11 -11 -11 -5 0 -8 4 -5 9 3 5 -17 14 -45 21 -54 13 -65 26 -55 65 7 26 27 38 79 50 21 4 26 9 19 18 -5 7 -12 21 -15 32 -4 16 -5 15 -6 -6 -1 -24 -32 -49 -61 -49 -13 0 -18 32 -8 58 5 15 4 21 -2 17 -17 -10 -11 25 8 53 11 15 22 38 25 52 9 31 -13 134 -25 122 -5 -5 -2 -26 7 -48 13 -35 14 -45 1 -79 l-14 -40 -6 50 c-3 28 -10 79 -15 115 -7 45 -7 68 1 75 7 7 8 3 3 -14 -5 -17 -4 -21 5 -16 9 5 10 1 5 -16 -6 -19 -5 -21 5 -12 10 9 10 19 0 49 -12 35 -13 36 -27 18 -8 -11 -12 -30 -9 -44 3 -14 9 -61 12 -105 4 -44 11 -88 16 -97 5 -12 5 -18 -2 -18 -5 0 -10 -8 -11 -17 -2 -42 -19 41 -33 162 -9 72 -18 148 -21 170 l-5 40 14 -30 c9 -16 15 -38 16 -48z m264 8 c3 -9 -1 -16 -9 -16 -8 -1 -20 -2 -27 -3 -6 -1 -12 7 -14 17 -3 22 41 24 50 2z m-99 -153 c4 -24 3 -62 -1 -85 l-7 -42 -12 28 -11 28 -13 -43 c-7 -24 -20 -54 -27 -68 l-15 -25 7 25 c4 14 8 34 8 45 1 11 5 23 10 26 17 13 19 142 3 189 l-16 45 34 -39 c22 -26 36 -55 40 -84z m172 103 c0 -8 -4 -15 -8 -15 -4 0 -7 -9 -6 -20 1 -11 5 -20 9 -20 4 0 8 -4 8 -10 0 -5 -20 -10 -45 -10 -25 0 -45 -5 -45 -11 0 -7 19 -9 51 -6 44 3 52 1 57 -15 2 -10 11 -17 19 -16 20 4 43 -33 25 -39 -6 -3 -10 -9 -7 -13 3 -5 7 -27 10 -50 2 -22 7 -49 10 -60 8 -25 1 -25 -29 -3 -23 17 -23 17 -3 34 21 16 21 16 -4 41 -25 25 -28 61 -4 52 7 -3 16 0 21 7 5 8 3 10 -6 4 -7 -4 -16 -2 -20 6 -5 7 -30 14 -57 16 -26 1 -48 3 -48 3 0 1 -11 4 -25 6 -17 3 -21 1 -14 -6 6 -6 24 -12 40 -14 16 -3 37 -7 47 -11 10 -4 17 -3 17 5 0 6 5 8 10 5 6 -3 10 -15 10 -27 0 -17 -2 -18 -15 -8 -8 7 -27 10 -43 7 -18 -4 -36 1 -52 13 -25 19 -25 19 -42 -3 -17 -22 -18 -22 -18 23 0 26 -9 61 -20 83 -29 54 -16 64 91 66 71 1 86 -1 86 -14z m-937 -7 c-49 -22 -140 -80 -140 -89 0 -13 34 -11 65 5 23 12 24 15 8 19 -13 3 -6 10 29 26 57 26 90 21 136 -23 18 -17 36 -30 40 -29 4 1 6 -5 4 -14 -2 -10 1 -12 9 -7 8 4 10 3 5 -4 -4 -7 6 -29 21 -49 15 -20 23 -34 17 -30 -13 8 1 -112 15 -126 6 -6 6 6 0 29 -17 75 -8 90 14 24 21 -61 21 -65 5 -72 -26 -11 -170 23 -158 36 9 12 -16 76 -30 76 -4 0 -11 7 -14 16 -5 12 -2 15 10 10 12 -4 15 0 12 17 -2 16 -11 23 -34 25 -22 2 -31 -1 -31 -12 0 -11 5 -13 19 -5 10 5 24 7 31 2 8 -5 3 -9 -13 -13 -14 -4 -24 -13 -22 -21 3 -10 -1 -9 -15 3 -14 13 -32 16 -73 13 l-55 -4 60 13 c35 8 49 14 33 15 -36 1 -126 -18 -133 -29 -3 -5 30 -8 74 -7 44 1 78 0 76 -2 -2 -2 12 -24 31 -49 19 -25 32 -47 30 -49 -2 -2 -32 3 -67 12 -126 31 -145 36 -181 46 -35 9 -44 27 -23 46 4 4 5 2 1 -4 -12 -21 2 -15 65 27 33 22 84 50 112 61 29 11 59 24 68 29 11 6 30 0 58 -16 45 -28 51 -35 21 -27 -12 3 -20 0 -20 -7 0 -7 7 -10 15 -6 8 3 15 1 15 -3 0 -5 -5 -11 -11 -13 -7 -2 -7 -12 0 -31 6 -16 14 -26 18 -24 7 5 10 -13 14 -80 1 -13 5 -23 10 -23 14 0 11 45 -7 112 -15 59 -12 87 6 58 5 -8 12 -12 15 -8 8 7 -59 60 -111 86 -27 14 -45 17 -55 11 -10 -6 -6 -9 16 -9 22 0 26 -3 15 -9 -8 -5 -26 -11 -40 -12 -25 -4 -110 -45 -196 -95 -41 -24 -45 -25 -36 -8 11 21 74 81 126 122 36 27 30 37 -9 16 -32 -17 -77 -55 -71 -61 2 -2 -10 -18 -26 -35 -16 -17 -31 -28 -35 -24 -11 11 20 57 67 96 74 62 135 90 194 89 46 0 49 -1 26 -11z m980 -2 c0 -19 -26 -40 -34 -27 -4 5 -2 12 4 16 6 4 8 11 5 16 -4 5 1 9 9 9 9 0 16 -6 16 -14z m-1960 -76 c0 -5 -6 -10 -12 -11 -10 0 -10 -2 0 -6 6 -2 10 -9 7 -13 -3 -5 -1 -11 4 -15 6 -3 8 3 6 15 -5 28 8 33 57 19 24 -7 46 -12 51 -11 8 2 8 2 11 -41 2 -16 -1 -26 -8 -24 -6 2 -10 13 -10 25 1 14 -3 19 -14 14 -11 -4 -13 -2 -7 9 5 8 -9 -1 -32 -18 -22 -18 -49 -33 -59 -33 -16 0 -17 -2 -4 -10 20 -13 43 -13 35 0 -3 6 2 13 12 17 10 4 20 10 23 14 3 4 13 1 23 -6 16 -11 16 -13 2 -19 -9 -3 -13 -2 -10 4 7 12 3 12 -19 4 -23 -9 -19 -21 6 -19 12 1 33 -4 46 -11 14 -7 48 -16 76 -19 28 -4 56 -10 61 -13 6 -4 21 -7 35 -7 14 -1 40 -9 59 -19 19 -10 51 -20 70 -23 54 -6 60 -7 146 -28 44 -10 84 -22 89 -27 6 -4 -8 -15 -32 -25 -34 -15 -42 -23 -42 -45 0 -29 -22 -50 -116 -113 -67 -44 -80 -69 -93 -170 -4 -33 -15 -74 -24 -92 -10 -18 -17 -41 -17 -51 0 -30 -18 -39 -113 -52 -48 -8 -90 -16 -92 -20 -5 -8 73 -292 83 -302 4 -4 44 3 87 17 44 14 83 25 86 25 3 0 7 -63 8 -140 l2 -140 -205 0 -206 0 0 685 c0 602 2 685 15 685 8 0 15 -4 15 -10z m895 0 c-3 -5 -16 -10 -28 -9 -21 0 -21 1 -2 9 28 12 37 12 30 0z m-95 -3 c0 -2 -10 -12 -22 -23 l-23 -19 19 23 c18 21 26 27 26 19z m-646 -33 c9 -3 16 -10 16 -16 0 -5 -5 -6 -12 -2 -7 4 -8 3 -4 -4 5 -8 1 -10 -10 -5 -13 5 -14 8 -5 11 11 4 11 6 0 13 -16 10 -8 12 15 3z m86 -16 c12 4 13 3 3 -10 -7 -8 -10 -17 -7 -20 2 -3 -2 -8 -10 -11 -10 -4 -14 0 -11 14 2 11 0 17 -4 14 -5 -2 -14 2 -21 10 -11 14 -10 14 11 7 13 -5 31 -7 39 -4z m-145 -16 c-3 -3 -11 0 -18 7 -9 10 -8 11 6 5 10 -3 15 -9 12 -12z m96 -7 c-1 -6 -6 -10 -12 -10 -6 0 -16 -7 -22 -16 -9 -12 -18 -14 -35 -8 -26 10 -29 17 -4 15 9 0 16 4 15 11 -2 7 3 10 11 7 8 -3 17 0 21 6 8 13 27 9 26 -5z m99 -6 c0 -5 5 -9 11 -9 5 0 7 5 3 12 -5 7 -3 8 6 3 7 -4 22 -8 33 -9 11 -1 23 -8 25 -16 4 -11 2 -13 -9 -4 -19 14 -38 12 -48 -5 -7 -11 -13 -10 -35 4 -14 10 -26 15 -26 11 0 -16 3 -21 11 -18 5 1 9 -3 9 -9 0 -5 5 -7 12 -3 7 4 8 3 4 -4 -12 -19 12 -14 26 6 18 23 33 25 50 5 11 -14 11 -16 -3 -11 -10 4 -16 1 -16 -8 0 -19 3 -18 40 9 29 21 38 23 65 18 4 -1 -11 -13 -32 -26 -30 -18 -35 -24 -18 -22 12 1 22 6 22 12 0 5 6 2 14 -7 13 -17 56 -21 56 -5 0 5 6 4 14 -2 9 -8 16 -8 20 -2 9 14 -4 18 -47 16 -46 -3 -55 8 -21 26 21 11 27 11 34 -1 5 -8 21 -15 37 -17 15 -2 48 -8 73 -14 25 -6 61 -13 80 -15 56 -6 89 -15 97 -26 4 -8 0 -9 -11 -5 -10 4 -15 3 -11 -3 3 -6 1 -10 -5 -10 -6 0 -13 7 -17 16 -5 13 -7 13 -14 2 -7 -11 -9 -10 -9 1 0 11 -4 11 -18 -2 -10 -10 -21 -15 -24 -12 -3 3 -10 0 -16 -8 -8 -10 -6 -13 9 -14 10 -1 19 3 19 10 0 6 7 2 16 -9 14 -18 15 -18 4 4 -7 15 -7 22 0 22 5 0 10 -4 10 -10 0 -5 10 -14 21 -21 15 -8 19 -8 15 0 -11 17 3 13 34 -9 l29 -20 14 20 c7 11 17 17 20 13 4 -3 7 -1 7 5 0 11 -38 11 -58 -2 -23 -14 -34 5 -12 21 18 13 27 12 84 -7 53 -17 66 -26 76 -51 9 -22 15 -27 21 -17 6 10 11 8 23 -7 14 -20 15 -20 22 -1 7 19 8 19 16 0 6 -14 7 -11 3 10 -6 28 -5 29 27 22 18 -4 47 -10 63 -13 17 -2 31 -9 33 -13 2 -5 9 -7 17 -4 8 4 18 -7 26 -30 14 -40 34 -47 42 -16 3 11 1 17 -4 14 -11 -6 -39 13 -39 27 0 5 11 9 25 9 18 0 26 -7 31 -24 3 -14 3 -29 0 -34 -3 -6 1 -13 10 -16 23 -9 34 -7 34 4 0 6 -7 10 -16 10 -12 0 -15 7 -12 25 3 15 1 22 -5 18 -6 -3 -7 -1 -3 5 7 11 31 7 52 -9 6 -5 13 -6 16 -3 5 5 126 -26 168 -43 8 -3 19 -5 23 -4 5 1 27 -4 50 -11 23 -6 45 -12 50 -14 4 -1 9 -3 12 -4 7 -4 23 -7 38 -9 8 -1 8 -4 -3 -11 -9 -6 -19 -5 -29 3 -11 10 -13 9 -9 -3 3 -10 15 -14 34 -12 20 2 25 0 15 -6 -9 -7 -6 -9 12 -9 23 0 24 1 11 14 -21 21 -17 29 5 9 10 -9 28 -18 40 -19 11 -1 21 -4 21 -8 0 -4 9 -5 20 -2 15 4 20 1 19 -13 0 -11 -3 -14 -5 -7 -3 7 -12 9 -20 6 -8 -3 -20 0 -28 6 -7 6 -27 8 -44 5 -19 -4 -42 0 -61 9 -17 9 -31 12 -31 7 0 -5 -9 -8 -19 -7 -11 0 -19 4 -19 7 2 18 -4 23 -12 10 -8 -13 -13 -13 -37 2 -15 9 -27 24 -25 33 3 14 -8 19 -35 16 -7 -1 -13 3 -13 8 0 5 -9 9 -19 8 -12 -1 -17 -6 -13 -16 4 -10 1 -12 -8 -6 -9 5 -11 4 -6 -4 4 -6 12 -8 18 -5 6 4 8 3 5 -3 -3 -5 1 -10 9 -10 10 0 11 4 4 11 -19 19 -10 29 10 11 12 -11 20 -13 20 -6 0 7 4 10 10 6 5 -3 7 -12 4 -20 -4 -10 -17 -12 -42 -9 -21 3 -42 5 -49 6 -6 1 -10 9 -8 19 2 10 -2 20 -10 23 -15 5 -25 -2 -25 -18 0 -6 5 -4 10 4 9 14 11 11 10 -17 0 -5 -13 -9 -28 -9 -15 -1 -21 0 -14 3 6 2 12 12 11 21 0 11 -2 12 -6 5 -2 -7 -9 -13 -14 -13 -5 0 -3 14 6 30 9 17 11 30 5 30 -5 0 -10 -5 -10 -11 0 -6 -7 -17 -15 -26 -8 -8 -12 -19 -9 -25 4 -6 -1 -8 -12 -5 -11 3 -53 13 -94 23 -41 10 -77 19 -78 20 -2 1 -1 13 4 26 l7 23 8 -23 c5 -12 13 -22 19 -22 15 0 12 16 -7 35 -15 16 -18 15 -34 -6 -10 -13 -15 -27 -13 -31 3 -4 -7 -3 -23 3 -15 6 -39 12 -53 14 -41 6 -78 23 -90 42 -9 16 -10 15 -4 -6 5 -21 4 -23 -12 -16 -83 34 -172 26 -276 -27 -54 -26 -58 -27 -58 -9 0 12 16 28 44 44 35 20 53 23 95 19 52 -5 73 11 26 20 -14 3 -25 2 -25 -2 0 -8 -89 15 -99 26 -3 3 2 10 11 15 10 5 15 16 12 24 -7 18 -54 16 -54 -3 0 -9 5 -10 19 -2 12 6 22 6 26 1 6 -10 -27 -24 -61 -25 -14 -1 -20 3 -17 11 3 7 8 11 12 8 4 -2 8 2 8 10 0 11 -4 12 -13 4 -7 -6 -23 -9 -36 -8 -13 2 -29 -1 -37 -5 -10 -7 -12 -6 -6 4 6 10 1 12 -18 8 -15 -3 -29 0 -32 6 -3 8 -7 7 -11 -2 -3 -6 -11 -9 -17 -5 -7 4 -20 9 -30 10 -10 2 -28 10 -41 18 -13 9 -30 13 -39 10 -8 -4 -18 -1 -22 4 -3 6 -10 9 -15 6 -5 -3 -11 -1 -14 4 -3 5 -16 7 -29 4 -22 -4 -22 -4 3 18 14 12 24 26 22 31 -1 5 8 3 20 -3 21 -11 22 -11 9 5 -12 14 -12 16 3 10 9 -3 16 -10 16 -15z m1523 -11 c8 -18 21 -39 31 -47 14 -12 18 -12 30 5 14 19 12 34 -4 34 -5 0 -7 -7 -3 -16 5 -15 3 -15 -20 1 -15 9 -27 22 -27 27 0 5 6 6 13 1 6 -4 28 -8 47 -8 21 0 36 -5 36 -12 1 -7 3 -16 4 -20 1 -5 2 -12 1 -17 -1 -5 4 -4 12 2 11 10 17 9 27 -3 12 -14 10 -16 -6 -14 -4 0 -11 -5 -15 -13 -7 -9 -11 -10 -17 -1 -4 6 -25 10 -47 9 -41 -3 -100 23 -108 47 -3 10 21 55 30 57 2 0 9 -15 16 -32z m-1639 -10 c-5 -8 -2 -9 10 -5 10 4 15 3 11 -3 -7 -12 -35 -13 -35 -2 0 9 10 22 17 22 2 0 1 -5 -3 -12z m220 3 c3 -5 -1 -11 -9 -14 -9 -4 -12 -1 -8 9 6 16 10 17 17 5z m683 -13 c-3 -8 -6 -5 -6 6 -1 11 2 17 5 13 3 -3 4 -12 1 -19z m651 -63 c0 -16 -2 -15 -8 5 -11 34 -11 60 0 35 5 -11 8 -29 8 -40z m-709 -3 c19 -38 19 -38 -1 -70 -20 -33 -34 -43 -25 -19 6 16 -25 19 -35 3 -5 -6 -8 -1 -8 12 0 21 3 23 29 17 38 -8 47 9 22 41 -11 14 -17 32 -14 40 8 20 10 18 32 -24z m894 -32 c16 -32 17 -33 12 -7 -5 26 -4 27 16 17 29 -16 72 -120 48 -120 -20 0 -38 33 -39 70 -1 29 -2 32 -11 17 -7 -12 -7 -27 0 -48 8 -23 7 -29 -5 -29 -7 0 -14 -4 -14 -10 0 -5 6 -7 14 -4 8 3 17 1 21 -5 3 -6 -1 -11 -9 -11 -24 0 -19 -19 7 -29 32 -12 63 -101 46 -132 -11 -22 -14 -18 -41 51 -55 144 -69 190 -62 201 5 8 3 9 -6 4 -9 -6 -10 -2 -5 15 4 14 3 20 -3 16 -9 -6 -22 14 -22 36 0 22 36 0 53 -32z m-1178 0 c3 -5 1 -10 -4 -10 -6 0 -11 5 -11 10 0 6 2 10 4 10 3 0 8 -4 11 -10z m79 -31 c-3 -5 -10 -7 -15 -3 -5 3 -7 10 -3 15 3 5 10 7 15 3 5 -3 7 -10 3 -15z m-20 -50 c-5 -8 -1 -8 14 0 12 6 23 7 26 2 3 -5 23 -11 43 -14 42 -6 55 -8 158 -31 38 -9 82 -16 96 -16 31 0 52 -21 44 -43 -8 -20 -44 -10 -56 17 -9 20 -9 20 -5 -2 4 -22 3 -22 -62 -16 -37 3 -91 9 -121 14 -56 8 -139 -8 -124 -25 4 -4 3 -5 -4 -1 -17 10 -193 -67 -181 -79 3 -4 142 -12 340 -21 110 -5 138 -9 143 -21 7 -21 -1 -28 -17 -16 -25 20 -74 25 -88 8 -10 -12 -10 -15 1 -15 9 -1 8 -5 -5 -15 -27 -20 -42 -19 -25 2 13 15 12 15 -8 5 -42 -23 -47 -5 -6 20 l27 16 -26 -1 c-14 -1 -24 -5 -22 -9 3 -4 -4 -12 -15 -17 -14 -8 -21 -8 -24 2 -4 9 -6 9 -6 -1 -1 -8 8 -16 19 -19 11 -3 17 -10 14 -15 -4 -6 2 -7 17 -3 23 7 24 7 4 -9 -11 -8 -15 -16 -8 -16 6 0 15 5 18 10 13 21 22 9 21 -29 0 -35 -4 -40 -30 -45 -19 -4 -33 -2 -38 6 -19 29 -25 35 -73 74 -90 74 -103 78 -244 71 -79 -4 -132 -12 -145 -21 -15 -9 -30 -45 -51 -122 -23 -80 -35 -110 -48 -112 -10 -2 -17 3 -17 13 0 9 4 14 10 10 13 -8 42 91 45 158 1 31 5 60 9 64 3 3 6 14 6 24 0 10 28 37 68 64 37 26 61 41 55 34 -18 -18 -16 -34 2 -19 8 7 15 9 15 5 0 -5 10 0 21 11 17 14 23 16 26 6 4 -10 9 -8 20 5 8 10 11 11 7 3 -5 -10 0 -8 15 4 18 17 21 17 15 3 -8 -22 0 -22 22 0 13 13 19 14 22 5 2 -7 9 -9 15 -5 7 4 23 9 37 10 67 5 85 10 85 21 0 7 5 12 10 11 6 -1 9 -5 8 -9 -2 -8 11 -7 37 3 35 13 71 13 81 1 15 -18 26 -18 26 1 0 8 -3 13 -5 10 -3 -3 -14 2 -24 12 -11 9 -18 11 -18 5 0 -7 -5 -12 -11 -12 -5 0 -7 4 -4 10 4 6 -2 7 -17 1 -13 -4 -29 -6 -37 -3 -10 3 -12 0 -8 -12 4 -11 3 -15 -4 -10 -6 3 -8 15 -6 26 5 18 4 19 -12 4 -21 -19 -47 -21 -57 -4 -4 6 -3 8 4 4 6 -3 13 -3 16 2 11 18 -25 8 -41 -11 -10 -11 -13 -17 -6 -14 6 4 15 2 19 -4 5 -9 -1 -10 -20 -5 -16 4 -33 3 -39 -2 -7 -5 -25 -9 -42 -7 -16 1 -36 -2 -42 -8 -7 -5 -13 -6 -13 -2 0 4 -7 2 -15 -5 -8 -7 -15 -9 -15 -5 0 5 -9 0 -19 -9 -13 -12 -21 -14 -26 -6 -3 6 -1 9 6 8 7 -2 13 3 14 10 0 6 2 11 5 11 3 -1 31 13 63 30 32 17 56 27 52 21 -10 -17 4 -11 28 11 13 12 31 19 45 16 12 -2 22 0 22 4 0 5 5 9 11 9 5 0 7 -5 3 -11z m1205 -59 c-8 -6 -6 -9 7 -13 18 -4 18 -5 -1 -5 -11 0 -31 4 -45 8 -25 8 -25 8 -2 9 13 1 21 5 18 10 -4 5 3 7 15 4 14 -4 17 -8 8 -13z m-1184 -10 c3 -6 -1 -7 -9 -4 -18 7 -21 14 -7 14 6 0 13 -4 16 -10z m-58 -16 c-3 -3 -12 -4 -19 -1 -8 3 -5 6 6 6 11 1 17 -2 13 -5z m626 -30 c81 -15 147 -31 147 -35 0 -3 -19 -3 -42 1 -24 5 -102 14 -174 21 -121 12 -131 14 -126 32 3 13 11 17 26 14 11 -3 87 -18 169 -33z m673 -61 c18 -49 35 -96 39 -105 9 -23 -8 -23 -30 -2 -11 11 -14 25 -10 41 6 24 -12 70 -23 59 -4 -5 -42 77 -42 92 0 1 8 2 18 2 13 0 25 -22 48 -87z m-1040 62 c50 -2 102 -6 115 -9 13 -4 98 -13 189 -21 91 -9 189 -18 218 -21 30 -2 51 -1 48 4 -2 4 4 9 15 9 15 1 18 -1 11 -10 -8 -9 13 -13 87 -15 53 -1 105 -4 116 -6 11 -3 36 -5 55 -6 l35 -1 -34 -14 c-32 -14 -54 -15 -174 -1 -26 3 -37 0 -34 -7 2 -7 19 -10 39 -9 20 2 38 -1 41 -5 3 -5 -15 -8 -41 -7 -26 2 -119 6 -207 11 -88 4 -207 7 -265 5 -58 -1 -99 2 -92 6 7 5 -7 8 -35 8 -95 0 -153 8 -153 21 0 15 36 17 45 3 3 -5 11 -10 16 -10 6 0 7 5 3 12 -4 7 -3 8 5 4 6 -4 42 -8 80 -9 38 -1 67 -5 65 -8 -2 -4 6 -5 18 -1 14 3 19 1 14 -6 -5 -8 4 -7 26 1 26 11 103 15 103 7 0 -1 35 -4 78 -7 47 -3 77 -1 77 5 0 5 -10 10 -22 9 -38 0 -171 12 -176 17 -2 3 -15 0 -29 -5 -18 -7 -34 -5 -56 6 -33 17 -50 20 -27 5 9 -6 -19 -7 -80 -4 -78 5 -97 9 -109 25 -18 25 -35 25 -21 -1 9 -17 8 -20 -9 -20 -14 0 -19 -5 -16 -20 2 -11 -1 -20 -7 -20 -5 0 -8 6 -5 14 9 23 -3 26 -40 11 -19 -8 -39 -13 -43 -10 -5 3 -11 1 -15 -5 -8 -13 -25 -13 -25 1 0 5 5 7 12 3 7 -4 8 -3 4 4 -4 6 -13 9 -21 6 -8 -4 -13 -9 -11 -13 3 -4 -4 -8 -15 -8 -12 -1 -24 7 -29 20 -7 17 -9 18 -9 5 -1 -18 -21 -26 -21 -9 0 11 25 32 36 30 5 -1 11 0 14 1 3 1 40 4 83 5 91 4 116 14 36 16 -30 1 -45 4 -35 6 15 4 16 7 5 15 -10 6 1 8 31 4 25 -4 86 -8 136 -11z m-205 -23 c-7 -2 -18 1 -23 6 -8 8 -4 9 13 5 13 -4 18 -8 10 -11z m1133 -54 c7 -5 5 -8 -6 -8 -21 0 -32 16 -22 32 6 9 9 8 12 -2 3 -8 10 -18 16 -22z m-1244 12 c0 -5 -8 -10 -17 -10 -15 0 -16 2 -3 10 19 12 20 12 20 0z m448 -51 c11 -4 9 -11 -7 -29 -20 -25 -20 -25 -21 -3 0 12 -3 30 -7 40 -5 15 -4 16 8 7 8 -6 20 -13 27 -15z m872 11 c-13 -9 -13 -12 1 -23 8 -6 18 -19 21 -28 9 -24 -30 -12 -43 13 -11 21 3 48 25 48 6 0 4 -5 -4 -10z m-92 -18 c2 -7 -3 -12 -12 -12 -8 0 -25 -13 -38 -30 -12 -16 -28 -30 -35 -30 -7 0 -12 -3 -12 -7 3 -21 -3 -29 -26 -31 -14 -1 -39 -9 -56 -17 -16 -9 -34 -13 -40 -10 -5 4 -15 2 -22 -3 -7 -5 -21 -6 -32 -2 -16 6 -14 8 13 13 19 4 32 13 32 21 0 8 8 21 18 28 9 7 26 23 36 36 l19 22 -29 -1 c-25 0 -26 -2 -9 -9 11 -5 18 -9 15 -10 -3 -1 -14 -4 -25 -6 -11 -3 -24 -6 -30 -7 -5 -1 -16 -6 -22 -10 -7 -5 -17 -6 -22 -2 -16 9 -62 -41 -65 -71 -3 -28 -40 -55 -83 -60 -12 -1 -39 -8 -60 -15 -21 -7 -44 -12 -52 -10 -8 1 -10 -2 -5 -10 5 -9 1 -11 -14 -7 -12 4 -20 2 -16 -3 3 -5 -2 -9 -10 -9 -9 0 -16 5 -16 11 0 5 -5 7 -11 3 -8 -4 -7 -9 2 -16 10 -7 5 -8 -14 -3 -17 3 -26 2 -23 -4 3 -5 -16 -14 -43 -21 -45 -11 -51 -10 -86 14 -48 33 -51 32 -70 -4 -19 -37 -19 -46 0 -26 8 8 15 22 15 30 0 24 15 20 53 -13 l33 -30 161 49 c153 47 304 109 273 111 -8 1 -19 1 -24 0 -5 -1 -6 5 -2 14 3 9 6 21 6 26 0 5 4 9 9 9 5 0 7 -9 4 -19 -4 -15 2 -21 29 -27 41 -10 98 -11 98 -3 0 10 60 32 67 25 4 -3 19 6 35 21 15 15 28 22 28 17 0 -17 -77 -87 -84 -76 -3 5 1 13 10 16 9 4 14 9 10 13 -3 3 -15 -2 -26 -12 -11 -10 -34 -18 -50 -18 -17 0 -28 -2 -25 -5 2 -2 -6 -13 -18 -23 -12 -10 -17 -18 -11 -19 6 0 17 7 24 15 16 20 25 19 76 -6 31 -15 41 -25 37 -36 -4 -11 -3 -14 6 -9 7 5 10 14 7 21 -2 7 1 18 7 24 6 6 7 11 3 11 -5 0 8 21 29 48 l37 47 -36 -39 c-20 -22 -39 -37 -42 -34 -8 8 65 88 78 85 5 -1 17 9 26 23 14 19 14 23 2 16 -8 -5 -23 -16 -33 -24 -9 -8 -19 -13 -22 -11 -2 3 19 25 46 50 45 41 51 44 60 28 15 -29 10 -46 -7 -19 l-14 25 1 -30 c2 -59 0 -68 -18 -61 -10 4 -14 4 -11 0 4 -4 -4 -15 -17 -26 -14 -10 -24 -25 -22 -31 1 -7 -2 -11 -8 -11 -5 1 -20 -13 -32 -32 -12 -19 -17 -34 -11 -34 6 0 1 -11 -12 -25 -18 -19 -27 -22 -42 -14 -16 9 -17 13 -6 27 10 12 10 14 1 8 -7 -4 -13 -2 -13 4 0 6 -13 1 -30 -12 -16 -12 -30 -26 -30 -32 0 -5 11 1 25 14 14 13 27 21 30 18 3 -3 -11 -18 -31 -33 -21 -16 -34 -23 -30 -17 12 19 1 14 -20 -10 -10 -12 -13 -18 -6 -14 24 14 11 -7 -37 -60 -28 -30 -48 -61 -46 -71 4 -25 -36 -68 -47 -51 -5 9 -8 5 -8 -10 0 -24 0 -24 38 6 44 36 78 72 67 72 -5 0 -16 -7 -25 -15 -14 -13 -17 -13 -17 0 0 8 5 11 10 8 6 -4 7 -1 2 7 -6 9 -4 11 5 5 9 -6 11 -4 5 5 -5 8 -4 11 2 7 11 -7 73 53 76 74 4 27 17 37 42 35 20 -3 23 0 15 15 -13 23 3 34 20 14 14 -16 21 -6 -175 -226 -66 -74 -144 -159 -175 -189 -30 -30 -54 -57 -53 -61 1 -4 -7 -15 -17 -24 -11 -10 -20 -15 -20 -10 0 4 -7 1 -17 -6 -36 -30 7 29 46 63 57 49 191 196 154 169 -17 -13 -35 -21 -41 -17 -5 3 -18 -4 -28 -15 -23 -26 -104 -83 -104 -73 0 3 -8 0 -17 -7 -10 -8 6 10 36 38 39 38 52 57 49 71 -4 15 24 48 123 142 71 67 129 125 129 129 0 4 -10 7 -22 8 -13 0 -17 -1 -9 -4 9 -4 -28 -47 -105 -124 -65 -65 -121 -116 -126 -113 -5 3 -7 2 -6 -3 2 -4 -30 -39 -70 -78 -63 -60 -79 -70 -110 -71 -20 0 -46 -4 -58 -7 -15 -5 -21 -3 -21 8 0 8 3 13 6 10 2 -3 19 8 35 24 17 17 77 65 132 108 56 43 140 111 187 151 89 75 118 92 76 45 -17 -20 -13 -18 13 5 20 19 35 41 33 50 -1 10 4 25 13 35 12 14 13 20 3 30 -10 9 -12 9 -9 -3 2 -8 -2 -14 -9 -13 -7 2 -10 -4 -7 -12 4 -10 -10 -30 -37 -55 l-44 -40 -23 51 c-28 63 -35 60 -18 -6 7 -28 15 -43 17 -36 5 13 6 12 11 -1 5 -11 -15 -33 -68 -74 -41 -33 -88 -70 -105 -82 l-29 -24 0 36 c0 19 -5 38 -10 41 -6 4 -7 11 -4 17 4 6 1 9 -6 6 -8 -2 -16 -10 -18 -18 -3 -7 0 -10 6 -6 10 6 14 -3 26 -66 3 -11 -2 -16 -15 -15 -11 1 -19 7 -19 14 0 18 0 19 -9 51 -5 17 -5 36 1 47 8 13 7 16 -1 11 -7 -5 -11 1 -11 16 0 16 3 19 9 10 6 -11 10 -10 15 4 3 9 4 19 1 22 -3 3 -5 0 -5 -6 0 -6 -7 -9 -15 -6 -8 4 -13 9 -11 13 3 4 0 13 -5 21 -8 11 -9 5 -5 -20 8 -55 19 -165 17 -168 -1 -2 5 -9 15 -16 15 -11 2 -24 -110 -109 -94 -72 -135 -97 -157 -97 -34 0 -37 17 -13 75 9 22 14 61 13 94 -2 64 14 133 36 151 8 7 15 22 15 34 -1 16 -4 13 -16 -13 -8 -19 -17 -32 -20 -28 -7 6 22 63 36 72 5 3 10 11 10 16 0 6 -4 8 -10 4 -11 -7 8 54 23 73 7 8 5 12 -7 12 -9 0 -16 -5 -16 -11 0 -5 -4 -8 -9 -4 -5 3 -13 1 -16 -5 -4 -6 -1 -9 7 -8 15 3 14 1 -19 -96 -13 -38 -23 -81 -23 -96 0 -15 -9 -35 -20 -45 -11 -10 -22 -26 -25 -36 -4 -11 -10 -17 -15 -14 -4 3 -13 -2 -20 -10 -7 -8 -9 -15 -5 -15 4 0 2 -7 -5 -15 -6 -8 -15 -14 -18 -13 -4 1 -20 -4 -35 -10 -21 -9 -32 -9 -47 1 -30 18 -26 38 4 24 13 -7 22 -15 20 -19 -6 -10 26 2 44 15 9 7 9 13 1 24 -9 10 -9 12 2 8 9 -3 27 8 44 27 l30 33 -32 -29 c-38 -34 -40 -30 -15 22 11 24 16 49 12 72 -3 19 -3 71 0 115 l5 80 65 6 c41 3 52 6 30 8 -29 2 -32 4 -15 11 19 8 19 9 -2 9 -13 1 -23 -3 -23 -9 0 -5 -13 -7 -30 -3 -16 3 -30 2 -30 -3 0 -5 -35 -10 -78 -10 -78 -2 -139 -22 -185 -62 -21 -19 -35 -9 -17 13 7 8 8 15 3 15 -5 0 -15 -12 -21 -26 -9 -18 -9 -23 -1 -18 7 4 9 -1 5 -15 -3 -11 -8 -29 -11 -38 -6 -24 17 -68 35 -68 8 -1 23 8 33 19 19 21 21 27 10 25 -21 -3 -24 3 -12 18 8 9 9 14 2 10 -6 -4 -13 -1 -16 5 -4 10 -7 10 -18 0 -8 -7 -9 -13 -4 -12 22 5 27 -1 15 -15 -7 -8 -16 -15 -21 -15 -17 0 -9 58 11 81 20 24 20 24 35 4 9 -11 20 -38 26 -60 6 -22 21 -65 34 -95 12 -30 25 -79 29 -109 6 -47 5 -53 -9 -47 -9 3 -13 2 -10 -4 3 -6 12 -10 18 -10 7 0 23 -16 35 -35 13 -19 39 -46 58 -60 18 -14 38 -40 44 -58 l10 -32 -3 32 c-4 37 0 38 108 49 39 4 77 12 85 19 26 23 85 42 104 35 16 -5 9 -15 -45 -61 -36 -30 -76 -67 -89 -84 -22 -27 -22 -28 -2 -11 12 11 22 15 22 10 -1 -22 -19 -31 -75 -37 -33 -4 -70 -10 -82 -13 -18 -5 -23 -2 -23 12 0 16 -2 17 -10 4 -8 -12 -10 -11 -10 8 0 12 -5 22 -10 22 -6 0 -8 -11 -4 -25 6 -25 5 -25 -22 -13 -39 16 -64 38 -64 56 0 12 -3 12 -15 2 -14 -11 -19 -7 -16 13 0 4 -6 7 -14 7 -8 0 -15 3 -15 8 0 4 -21 20 -48 37 -26 16 -55 39 -64 50 -10 11 -17 15 -18 8 0 -15 25 -40 61 -58 18 -10 29 -23 29 -36 0 -12 16 -44 37 -71 20 -27 32 -53 27 -56 -5 -4 -24 -27 -41 -50 l-31 -44 -24 28 c-13 15 -41 48 -63 74 -22 26 -45 55 -52 66 -10 16 -12 17 -12 2 -1 -9 5 -23 12 -30 6 -7 39 -44 71 -81 l60 -68 -42 -42 c-28 -28 -42 -36 -42 -26 0 9 -7 22 -16 30 -8 7 -22 26 -30 43 l-15 31 26 -33 c15 -17 31 -32 37 -32 6 0 3 9 -6 19 -11 12 -14 21 -7 26 16 9 13 51 -4 65 -8 7 -25 10 -39 6 -17 -4 -26 -1 -30 11 -4 9 -9 13 -12 10 -4 -3 4 -20 16 -37 12 -17 20 -33 17 -36 -8 -9 -47 62 -48 87 0 22 -1 23 -9 4 -8 -18 -9 -18 -9 5 -1 14 -6 32 -11 40 -7 11 -10 7 -10 -17 0 -25 13 -49 50 -94 27 -34 51 -75 55 -90 3 -16 8 -42 11 -58 l5 -30 36 25 c19 13 39 21 43 19 5 -3 12 0 16 6 5 8 3 9 -7 4 -8 -4 -2 5 12 21 14 16 43 55 63 86 46 71 95 104 127 87 12 -6 43 -9 70 -7 42 4 46 3 31 -8 -9 -7 -13 -14 -9 -14 4 0 21 10 37 22 48 35 45 14 -4 -26 -50 -41 -55 -43 -51 -19 4 30 -5 34 -32 13 -28 -21 -53 -26 -53 -10 0 6 5 10 10 10 6 0 10 5 10 11 0 5 -4 7 -10 4 -5 -3 -10 0 -10 7 0 8 -3 9 -8 2 -4 -5 -18 -18 -32 -28 -14 -9 -18 -17 -10 -15 31 3 51 -1 45 -11 -3 -5 -12 -7 -21 -3 -8 3 -14 2 -12 -3 2 -5 -2 -9 -7 -9 -5 0 -9 3 -8 8 5 13 -4 7 -41 -27 -32 -29 -35 -34 -19 -40 16 -7 16 -9 -6 -25 -16 -12 -20 -21 -12 -25 6 -4 11 -2 11 3 0 6 3 10 8 10 4 -1 14 -1 22 0 13 1 13 2 0 11 -8 5 -11 10 -6 10 5 0 3 7 -4 15 -7 8 -11 15 -9 16 36 7 39 7 30 -5 -14 -17 1 -37 19 -26 8 6 11 10 6 10 -5 0 -3 7 4 15 7 8 9 15 4 15 -5 0 -1 7 9 14 10 8 28 12 40 10 21 -4 21 -4 2 5 -29 13 1 23 38 13 l28 -7 -35 -32 c-20 -17 -36 -29 -36 -26 0 3 -6 0 -14 -6 -31 -26 -124 -67 -145 -64 -13 2 -20 -2 -18 -10 1 -6 -6 -11 -15 -9 -10 1 -29 -5 -43 -14 -14 -9 -32 -13 -42 -10 -11 4 -28 -4 -50 -26 -25 -25 -36 -29 -45 -20 -18 18 -17 105 1 118 13 10 13 16 3 38 -6 14 -17 26 -24 26 -9 0 -9 -3 0 -12 14 -14 16 -38 3 -38 -14 0 -21 43 -10 56 6 7 18 10 26 7 11 -5 14 -3 9 6 -5 7 -18 10 -31 7 -21 -5 -24 -2 -31 47 -5 28 -7 69 -5 89 1 20 -2 45 -7 55 -5 10 -13 68 -17 129 l-7 112 72 21 c67 21 97 21 85 0 -4 -5 -1 -9 5 -9 6 0 9 -4 6 -9 -3 -5 -15 -7 -27 -4 -16 4 -17 8 -7 14 7 5 8 9 2 9 -16 0 -23 -10 -17 -26 3 -8 10 -11 15 -8 6 4 6 -1 -1 -13 -6 -11 -7 -23 -4 -27 3 -3 -2 -6 -13 -6 -16 0 -17 -2 -4 -10 11 -7 11 -10 2 -10 -7 0 -10 -5 -6 -11 4 -7 14 -3 28 13 11 13 31 32 43 42 22 18 23 18 46 -9 l24 -28 39 64 c36 59 50 99 35 97 -19 -2 -22 4 -10 20 12 15 12 16 -2 5 -9 -7 -20 -9 -24 -5 -5 4 -4 0 0 -8 8 -13 7 -13 -8 -1 -9 7 -17 9 -17 4 0 -10 -23 -19 -155 -59 -49 -14 -94 -30 -100 -34 -20 -14 -55 -18 -55 -6 0 21 54 53 85 51 17 -2 24 -1 18 2 -20 7 -15 22 5 17 28 -6 128 32 123 47 -2 8 -7 26 -11 42 -6 19 -5 27 3 27 7 0 1 9 -13 20 -14 11 -19 19 -11 18 7 -2 16 3 18 10 3 8 -1 10 -11 6 -13 -5 -15 -2 -10 12 4 11 4 16 0 13 -16 -15 -16 -57 0 -63 15 -6 15 -8 -1 -26 -10 -11 -21 -17 -26 -15 -4 3 -16 -8 -25 -24 -10 -17 -22 -27 -28 -24 -6 3 -6 1 1 -7 13 -14 38 -2 38 18 0 6 3 11 6 10 4 -2 16 6 28 16 18 16 21 17 21 3 0 -8 3 -22 6 -30 4 -12 0 -14 -15 -10 -11 3 -19 9 -16 12 2 4 -2 8 -10 8 -23 0 -18 -16 8 -28 20 -9 20 -9 1 -6 -11 2 -29 -2 -39 -9 -12 -9 -33 -12 -59 -9 -31 4 -36 3 -21 -4 11 -5 17 -10 13 -10 -4 -1 -33 -8 -64 -16 -53 -14 -58 -13 -70 3 -7 9 -10 20 -8 24 2 4 0 9 -6 13 -6 4 -8 11 -5 16 4 5 2 9 -4 9 -5 0 -11 -5 -13 -12 -3 -9 -6 -9 -11 -1 -4 6 6 24 22 40 15 16 31 40 35 53 7 25 7 25 -8 -1 -9 -15 -22 -29 -31 -33 -8 -3 -15 -13 -15 -21 0 -10 -5 -13 -12 -9 -7 4 -8 3 -4 -4 4 -7 1 -12 -6 -12 -9 0 -9 -3 2 -10 13 -8 12 -10 -4 -10 -18 0 -18 -1 -3 -18 10 -10 15 -21 12 -24 -3 -3 8 -4 25 -3 47 4 40 -16 -10 -28 -20 -5 -29 0 -47 26 -12 18 -25 54 -29 81 -5 35 -9 44 -16 35 -7 -11 -8 -9 -4 4 3 10 6 31 6 47 0 25 4 28 42 34 24 4 58 9 76 12 28 5 32 3 32 -15 0 -11 4 -21 9 -21 5 0 9 -11 9 -25 0 -13 -4 -22 -9 -19 -5 3 -6 -1 -3 -9 3 -8 -1 -17 -9 -20 -8 -3 -14 -17 -14 -31 0 -34 3 -33 23 9 13 28 19 33 30 24 7 -6 18 -8 24 -4 5 3 10 2 10 -4 0 -5 -4 -13 -10 -16 -14 -9 -12 -22 5 -29 8 -3 14 -2 14 2 -4 24 2 52 10 48 5 -3 20 3 32 14 13 11 18 19 12 20 -7 0 -13 -5 -13 -11 0 -6 -6 -9 -12 -6 -7 2 -12 9 -11 14 1 5 -5 10 -12 10 -11 0 -12 -4 -4 -13 7 -8 7 -14 -1 -19 -5 -3 -10 0 -11 7 0 10 -2 10 -6 1 -2 -7 -9 -13 -14 -13 -6 0 -7 5 -3 12 4 6 3 8 -3 5 -15 -9 -22 26 -11 48 7 11 6 21 -2 28 -8 9 -9 7 -4 -7 5 -13 4 -17 -4 -12 -35 22 15 56 82 56 17 0 85 11 152 25 66 13 129 24 140 24 10 0 37 4 59 10 23 5 107 22 189 36 81 14 160 28 175 31 20 4 23 3 11 -5 -9 -7 -10 -11 -3 -11 6 0 15 5 18 10 3 6 29 10 56 10 35 0 48 3 43 12 -4 6 -3 8 4 4 6 -3 79 6 162 20 83 14 154 23 158 20 3 -4 -6 -18 -21 -32 -28 -26 -38 -46 -12 -24 9 8 15 9 15 2 0 -6 -4 -14 -10 -17 -5 -3 -10 -14 -9 -23 0 -13 2 -12 9 4 5 12 13 25 19 29 14 8 45 66 34 63 -4 -2 -10 1 -13 6 -3 5 5 11 18 13 16 2 21 -1 16 -9 -5 -10 -4 -10 6 -1 10 9 17 10 27 2 9 -8 13 -8 13 0 0 6 12 11 28 11 24 1 25 2 9 11 -13 8 -44 6 -111 -5 -120 -20 -126 -20 -126 4 0 11 -4 20 -10 20 -6 0 -6 -9 -1 -23 9 -24 8 -24 -132 -46 -78 -13 -154 -25 -169 -28 -25 -5 -26 -4 -19 29 5 19 16 46 26 61 l18 28 166 -8 c91 -4 212 -7 267 -8 58 0 97 -4 90 -8 -6 -5 -1 -6 14 -3 14 3 35 6 48 6 13 0 21 4 18 8 -3 5 9 6 27 3 l32 -5 -30 -8 c-22 -5 -17 -6 18 -3 l47 5 -35 -31 c-19 -17 -32 -35 -29 -40 8 -14 24 -11 18 4 -2 7 9 23 26 35 16 13 30 29 30 36 0 25 40 31 48 8z m-61 2 c-3 -3 -12 -4 -19 -1 -8 3 -5 6 6 6 11 1 17 -2 13 -5z m-819 -16 c18 -18 14 -46 -7 -58 -26 -13 -34 -13 -25 2 4 6 3 8 -2 5 -6 -3 -16 -2 -24 4 -13 7 -12 9 3 9 9 0 17 5 17 10 0 6 7 10 15 10 8 0 15 4 15 10 0 5 -7 6 -17 3 -11 -4 -14 -3 -9 5 9 15 19 15 34 0z m-520 -25 c-14 -16 -24 -33 -21 -40 2 -6 -1 -14 -6 -18 -6 -3 -11 -14 -11 -23 0 -10 -9 -23 -20 -30 -29 -18 -26 2 7 46 l27 37 -27 -24 c-18 -17 -27 -20 -27 -10 0 14 79 89 94 89 6 0 -2 -12 -16 -27z m76 19 c3 -5 -1 -9 -9 -9 -8 0 -15 4 -15 9 0 4 4 8 9 8 6 0 12 -4 15 -8z m29 -9 c-5 -13 -2 -15 11 -10 10 4 27 7 37 7 11 0 18 4 15 8 -2 4 12 6 32 4 39 -4 96 -48 85 -65 -3 -6 -1 -7 5 -3 16 9 61 -25 62 -46 0 -17 -33 -33 -49 -23 -5 3 -12 1 -16 -4 -3 -5 -13 -10 -23 -9 -9 0 -89 -14 -177 -31 -88 -17 -162 -31 -164 -31 -2 0 4 11 13 25 9 14 14 25 11 25 -3 0 3 8 13 18 31 34 57 67 57 74 0 16 36 48 54 48 10 0 21 7 25 15 3 8 8 15 10 15 3 0 2 -8 -1 -17z m462 -3 c9 0 13 -14 13 -44 0 -36 -3 -44 -15 -39 -11 4 -11 8 -3 13 9 5 9 9 1 14 -16 10 -31 -2 -24 -19 3 -8 1 -16 -3 -16 -5 -1 -19 -3 -30 -4 -12 -1 -26 -5 -32 -9 -17 -10 -24 11 -9 26 12 11 12 15 -2 26 -14 11 -13 12 6 2 18 -8 31 -6 63 10 39 20 55 35 25 24 -11 -5 -15 0 -14 17 0 13 3 18 6 12 2 -7 11 -13 18 -13z m-628 -26 c-15 -13 -33 -24 -40 -24 -7 0 4 14 23 29 42 35 57 30 17 -5z m1233 -29 c-19 -19 -39 -35 -44 -35 -6 0 -4 4 4 10 8 5 11 13 6 17 -4 4 -16 -3 -27 -16 -21 -26 -23 -24 -9 14 8 22 13 24 30 15 16 -9 20 -8 20 5 0 9 4 14 8 11 4 -2 14 -1 22 5 27 16 24 9 -10 -26z m-1262 -59 c-1 -17 2 -38 7 -46 4 -8 5 -12 0 -8 -4 4 -14 3 -22 -3 -14 -12 -18 0 -5 17 4 5 -2 0 -12 -11 -19 -20 -19 -20 -11 0 4 11 8 25 8 32 0 7 5 9 11 6 6 -4 5 0 -2 9 -9 11 -10 18 -2 23 6 3 8 11 5 16 -3 5 1 6 10 3 10 -4 15 -17 13 -38z m1347 -37 c-9 -13 9 -11 23 3 9 9 12 8 12 -5 0 -10 -8 -17 -19 -17 -20 0 -45 23 -35 33 10 9 25 -3 19 -14z m-999 -76 c-2 -9 -8 -19 -15 -21 -10 -3 -10 0 -2 17 14 25 20 27 17 4z m111 -72 c-2 -50 -9 -96 -15 -104 -7 -8 -9 -17 -5 -20 3 -4 1 -7 -5 -7 -14 0 -15 5 -3 50 17 61 20 101 9 93 -7 -4 -9 2 -6 15 4 12 2 22 -3 22 -9 0 -13 -14 -10 -35 1 -5 -6 -1 -14 9 -10 14 -12 22 -4 27 8 4 8 9 1 13 -13 8 -25 -10 -17 -24 4 -6 3 -19 -1 -28 -11 -26 -19 -59 -28 -122 -8 -55 10 -13 24 58 7 34 17 62 23 62 6 0 7 -13 3 -32 -3 -18 -8 -46 -11 -63 -4 -25 -3 -24 8 7 13 39 33 67 24 33 -15 -56 -17 -84 -7 -90 7 -5 1 -12 -16 -21 -31 -16 -42 -13 -19 6 18 15 20 33 3 28 -7 -3 -13 -10 -13 -16 0 -13 -11 -15 -37 -8 -10 2 -18 12 -18 23 0 13 2 15 9 5 11 -18 23 60 15 95 -5 20 -4 24 6 18 8 -5 11 -4 6 3 -3 6 -2 13 4 17 5 3 10 10 10 15 0 5 -11 -1 -24 -13 -18 -16 -22 -26 -15 -39 14 -26 11 -48 -6 -42 -8 4 -15 1 -15 -6 0 -6 5 -8 10 -5 6 3 10 -1 10 -9 0 -10 -6 -13 -15 -10 -18 7 -20 45 -2 63 10 10 9 12 -2 9 -23 -5 -24 20 -1 32 11 6 17 16 14 22 -4 7 -3 8 4 4 7 -4 22 5 36 21 20 22 27 25 37 16 10 -10 16 -10 28 0 12 10 14 9 8 -3 -4 -8 -2 -7 5 3 7 9 14 17 16 17 2 0 2 -40 -1 -89z m-137 75 c0 -3 -10 -21 -22 -41 -19 -33 -22 -35 -31 -18 -6 10 -15 21 -20 25 -6 3 5 13 24 21 37 17 49 20 49 13z m-623 -78 c-3 -7 -5 -2 -5 12 0 14 2 19 5 13 2 -7 2 -19 0 -25z m738 3 c3 -5 1 -12 -5 -16 -5 -3 -10 1 -10 9 0 18 6 21 15 7z m816 -8 c-11 -21 -61 -70 -61 -60 0 7 60 77 66 77 3 0 0 -8 -5 -17z m208 -179 c-5 -6 -6 -14 -2 -17 3 -4 1 -7 -6 -7 -7 0 -9 10 -6 28 3 15 2 21 -1 14 -5 -11 -54 107 -54 128 0 3 18 -26 39 -65 25 -44 36 -74 30 -81z m-1225 115 c-3 -5 -10 -7 -15 -3 -5 3 -7 10 -3 15 3 5 10 7 15 3 5 -3 7 -10 3 -15z m228 -51 c-8 -8 -9 -4 -5 13 4 13 8 18 11 10 2 -7 -1 -18 -6 -23z m-636 -10 c2 -16 -12 -18 -34 -5 -7 5 -10 12 -7 17 8 13 38 5 41 -12z m418 -10 c-6 -21 -5 -22 11 -8 17 14 17 13 6 -7 l-11 -22 -26 22 -26 22 24 6 c13 4 24 7 26 8 2 1 0 -9 -4 -21z m-31 -26 l26 -27 -23 -29 -23 -29 -26 39 c-37 54 -36 63 14 73 3 0 17 -11 32 -27z m237 -16 c-5 -15 -14 -24 -20 -21 -6 4 -10 -7 -10 -24 0 -34 -2 -36 -31 -20 -19 9 -17 13 23 58 45 51 56 53 38 7z m-690 -3 c0 -13 7 -14 38 -8 20 4 49 8 65 8 15 1 27 5 27 9 0 5 4 8 9 8 20 0 -16 -50 -43 -60 -39 -14 -39 -14 -20 18 14 22 12 22 -10 -5 -27 -33 -65 -44 -67 -20 -1 18 -6 40 -15 61 -5 14 -4 17 4 12 7 -4 12 -14 12 -23z m378 2 c6 -14 10 -25 9 -25 -2 0 -14 11 -27 25 -18 19 -20 25 -8 25 8 0 20 -11 26 -25z m259 -12 c-31 -32 -39 -35 -47 -23 -12 19 -12 21 0 40 5 8 12 11 16 7 4 -3 1 -13 -6 -22 -8 -10 -9 -15 -1 -15 6 0 11 5 11 10 0 6 6 10 14 10 8 0 16 7 20 15 3 8 11 15 18 15 7 0 -4 -17 -25 -37z m160 -23 c-1 -27 -5 -50 -9 -50 -4 0 -5 -6 -2 -13 2 -7 1 -24 -4 -37 -9 -23 -9 -23 -22 11 -7 19 -12 38 -11 42 1 5 -3 6 -8 2 -9 -5 -5 -27 23 -112 6 -18 2 -22 -25 -28 -40 -9 -79 18 -96 66 -12 37 -12 36 49 58 15 6 44 33 65 60 21 27 39 50 40 50 1 1 1 -21 0 -49z m-442 -22 c-14 -11 -28 -18 -31 -15 -8 8 38 47 48 41 5 -3 -3 -15 -17 -26z m965 -42 c0 -2 -8 -10 -17 -17 -16 -13 -17 -12 -4 4 13 16 21 21 21 13z m-393 -61 c0 -8 -4 -12 -9 -9 -4 3 -8 -1 -8 -9 0 -8 -7 -18 -16 -21 -11 -4 -10 2 6 24 24 34 27 36 27 15z m243 2 c0 -2 -12 -14 -27 -28 l-28 -24 24 28 c23 25 31 32 31 24z m-105 -43 c-2 -24 -19 -43 -37 -44 -15 0 -8 28 8 34 9 4 15 9 12 11 -12 12 -38 -9 -38 -30 0 -15 -16 -36 -46 -61 -57 -48 -61 -50 -59 -22 1 13 8 22 14 20 6 -1 10 2 9 6 -4 13 105 111 124 112 12 0 15 -7 13 -26z m-868 -126 c-3 -8 -6 -5 -6 6 -1 11 2 17 5 13 3 -3 4 -12 1 -19z m393 -18 c0 -5 -2 -10 -4 -10 -3 0 -8 5 -11 10 -3 6 -1 10 4 10 6 0 11 -4 11 -10z m410 7 c0 -2 -10 -12 -22 -23 l-23 -19 19 23 c18 21 26 27 26 19z m-59 -60 c-13 -13 -26 -3 -16 12 3 6 11 8 17 5 6 -4 6 -10 -1 -17z m-215 -14 c-2 -10 -13 -20 -27 -22 l-24 -3 25 21 c31 25 29 25 26 4z m-348 -42 c4 -27 -12 -21 -29 10 -9 18 -8 20 8 17 10 -2 19 -14 21 -27z m218 -27 c2 -11 -1 -12 -10 -5 -7 6 -17 7 -22 3 -4 -4 -2 1 5 11 15 19 24 16 27 -9z m-203 -107 c-7 -11 -23 12 -23 33 1 12 4 11 15 -4 8 -10 12 -23 8 -29z m516 -41 c0 -26 -2 -28 -8 -11 -5 11 -7 23 -4 27 2 4 -6 12 -17 18 -15 8 -20 8 -18 -2 2 -6 -10 -15 -27 -18 -28 -5 -28 -6 -7 -12 13 -4 28 -1 36 8 19 19 21 18 22 -11 1 -18 -3 -25 -16 -25 -11 0 -21 4 -24 8 -3 5 -22 7 -42 6 -42 -4 -39 0 26 44 41 28 46 29 63 15 9 -9 17 -30 16 -47z m-306 -53 c-15 -13 -24 -23 -19 -23 5 0 1 -9 -9 -20 -10 -11 -14 -20 -9 -20 9 -1 -36 -29 -47 -30 -3 0 -6 6 -6 14 0 8 6 12 13 9 15 -6 28 13 14 22 -8 5 -7 11 1 21 6 8 8 14 3 14 -5 0 11 18 36 39 42 36 45 37 48 18 3 -14 -6 -29 -25 -44z m137 -4 c0 -5 3 -8 8 -6 4 2 14 -4 23 -13 13 -14 14 -20 3 -34 -7 -10 -15 -13 -18 -7 -4 5 -2 12 4 16 6 4 8 11 4 16 -3 6 -12 2 -21 -10 -8 -12 -20 -21 -27 -21 -8 0 -19 -6 -25 -14 -9 -11 -18 -12 -41 -3 -17 6 -30 14 -30 17 0 4 20 17 45 29 24 12 47 26 50 32 8 12 25 12 25 -2z m-446 -34 c-30 -40 -30 -40 -38 -19 -3 8 -2 13 3 10 5 -3 16 5 25 19 9 14 21 25 27 25 5 0 -2 -16 -17 -35z m526 -25 c11 -20 2 -79 -9 -63 -3 5 -23 19 -44 32 -21 13 -36 26 -33 29 3 2 12 -1 20 -7 12 -10 18 -9 33 8 21 25 20 25 33 1z m-37 -57 c9 -3 17 -14 17 -24 0 -17 -4 -16 -37 7 -21 14 -37 30 -36 34 1 4 -7 6 -17 3 -11 -3 -20 -1 -20 4 0 21 15 22 44 2 17 -11 39 -23 49 -26z m-233 -13 c24 -24 26 -56 4 -64 -9 -3 -12 -2 -9 4 4 7 -3 9 -18 6 -26 -5 -96 23 -97 38 0 4 7 5 16 2 8 -3 12 -2 9 4 -3 6 -1 11 4 11 26 3 30 4 37 12 13 12 33 8 54 -13z"/> <path d="M2441 2957 c-1 -4 6 -22 15 -38 8 -17 13 -38 9 -47 -5 -14 -4 -15 6 -5 10 10 9 21 -8 55 -12 24 -22 39 -22 35z"/> <path d="M2060 2912 c0 -5 7 -15 15 -22 8 -7 15 -8 15 -2 0 5 -7 15 -15 22 -8 7 -15 8 -15 2z"/> <path d="M2525 2709 c-4 -6 -5 -12 -2 -15 2 -3 7 2 10 11 7 17 1 20 -8 4z"/> <path d="M2075 2740 c-3 -5 -1 -10 4 -10 6 0 11 5 11 10 0 6 -2 10 -4 10 -3 0 -8 -4 -11 -10z"/> <path d="M1436 2728 c3 -5 10 -6 15 -3 13 9 11 12 -6 12 -8 0 -12 -4 -9 -9z"/> <path d="M1418 2703 c7 -3 16 -2 19 1 4 3 -2 6 -13 5 -11 0 -14 -3 -6 -6z"/> <path d="M1470 2591 c0 -6 4 -13 10 -16 6 -3 7 1 4 9 -7 18 -14 21 -14 7z"/> <path d="M1706 2477 c3 -10 9 -15 12 -12 3 3 0 11 -7 18 -10 9 -11 8 -5 -6z"/> <path d="M1383 2323 c-11 -16 -13 -16 -23 -3 -10 13 -11 13 -6 -2 3 -11 -2 -19 -17 -24 -31 -10 -66 -37 -67 -51 0 -7 -5 -13 -11 -13 -6 0 -9 -6 -6 -13 3 -8 1 -20 -5 -28 -8 -11 -9 -10 -4 4 4 11 2 17 -5 15 -6 -2 -10 -7 -9 -12 1 -5 -2 -12 -7 -15 -22 -15 -64 -82 -60 -93 4 -10 6 -11 6 0 1 7 12 17 26 22 22 8 31 26 26 53 -1 5 3 6 7 3 12 -7 46 30 38 42 -8 14 43 57 107 90 40 21 53 32 41 36 -8 3 -16 6 -17 6 -1 0 -7 -8 -14 -17z"/> <path d="M1470 2320 c0 -6 5 -10 11 -10 20 0 127 -84 144 -113 9 -16 19 -26 22 -23 9 8 -35 63 -80 100 -46 38 -97 62 -97 46z"/> <path d="M1300 2300 c-14 -11 -21 -20 -17 -20 5 0 20 9 34 20 14 11 22 20 17 20 -5 0 -20 -9 -34 -20z"/> <path d="M1355 2271 c-51 -29 -86 -61 -68 -61 6 0 18 10 29 21 10 12 42 32 69 45 28 13 43 24 35 24 -8 0 -38 -13 -65 -29z"/> <path d="M1690 2210 c-7 -23 -7 -40 1 -40 6 0 8 -4 5 -8 -3 -5 6 -51 19 -103 37 -141 63 -226 64 -207 1 9 4 25 7 35 5 15 4 16 -6 3 -10 -12 -11 -11 -6 10 7 32 -3 72 -17 63 -5 -3 -8 -2 -4 3 3 5 -8 59 -24 119 -31 117 -37 133 -39 125z"/> <path d="M1590 2121 c0 -6 4 -13 10 -16 6 -3 7 1 4 9 -7 18 -14 21 -14 7z"/> <path d="M1940 2045 c0 -5 5 -17 10 -25 5 -8 10 -10 10 -5 0 6 -5 17 -10 25 -5 8 -10 11 -10 5z"/> <path d="M2023 1865 c1 -79 5 -98 19 -89 5 3 6 13 2 23 -3 9 -10 43 -14 76 l-8 60 1 -70z"/> <path d="M1797 1878 c-8 -28 1 -65 17 -71 17 -7 18 36 2 68 -13 26 -13 26 -19 3z m23 -29 c0 -5 -4 -9 -10 -9 -5 0 -10 7 -10 16 0 8 5 12 10 9 6 -3 10 -10 10 -16z"/> <path d="M1930 1874 c0 -6 7 -19 16 -30 14 -18 14 -18 3 6 -14 31 -19 36 -19 24z"/> <path d="M2081 1744 c0 -11 3 -14 6 -6 3 7 2 16 -1 19 -3 4 -6 -2 -5 -13z"/> <path d="M2255 2220 c-3 -5 -1 -10 4 -10 6 0 11 5 11 10 0 6 -2 10 -4 10 -3 0 -8 -4 -11 -10z"/> <path d="M2166 2025 c-3 -8 -1 -15 4 -15 6 0 10 7 10 15 0 8 -2 15 -4 15 -2 0 -6 -7 -10 -15z"/> <path d="M2320 2135 c0 -8 4 -15 10 -15 5 0 7 7 4 15 -4 8 -8 15 -10 15 -2 0 -4 -7 -4 -15z"/> <path d="M2257 2123 c6 -16 20 -17 28 -3 4 6 11 8 16 5 5 -4 9 -2 9 3 0 5 -13 9 -29 8 -18 -1 -27 -5 -24 -13z"/> <path d="M2405 1990 c3 -5 8 -10 11 -10 2 0 4 5 4 10 0 6 -5 10 -11 10 -5 0 -7 -4 -4 -10z"/> <path d="M474 2056 c0 -16 5 -22 13 -19 7 3 13 9 13 13 0 4 -6 12 -13 18 -10 9 -13 6 -13 -12z"/> <path d="M1000 1930 c-8 -5 -12 -11 -10 -14 3 -2 14 2 24 10 22 15 10 19 -14 4z"/> <path d="M1317 1842 c-15 -16 -15 -18 1 -18 10 0 19 8 19 18 1 10 0 18 -1 18 -2 0 -10 -8 -19 -18z"/> <path d="M1504 1817 c3 -10 6 -21 6 -24 0 -3 7 0 15 7 18 15 20 -1 3 -18 -7 -7 -8 -12 -2 -12 6 0 16 11 22 24 9 21 8 23 -11 22 -12 -1 -26 3 -30 9 -5 6 -6 2 -3 -8z"/> <path d="M1611 1795 c1 -19 18 -51 18 -35 0 8 -4 22 -9 30 -5 8 -9 11 -9 5z"/> <path d="M1655 1790 c3 -5 8 -10 11 -10 2 0 4 5 4 10 0 6 -5 10 -11 10 -5 0 -7 -4 -4 -10z"/> <path d="M1738 1783 c6 -2 9 -10 6 -15 -4 -7 -2 -8 5 -4 13 9 5 26 -12 25 -9 0 -8 -2 1 -6z"/> <path d="M1790 1759 c0 -5 5 -7 10 -4 6 3 10 8 10 11 0 2 -4 4 -10 4 -5 0 -10 -5 -10 -11z"/> <path d="M1965 1720 c-4 -7 -1 -19 8 -27 14 -14 17 -14 37 0 14 10 18 17 10 22 -6 4 -14 4 -17 1 -3 -3 -12 -1 -19 5 -8 7 -14 7 -19 -1z m40 -12 c5 4 5 1 1 -6 -6 -10 -11 -10 -22 -1 -8 6 -14 14 -14 16 0 3 6 0 13 -6 8 -6 18 -7 22 -3z"/> <path d="M2044 1695 c-10 -8 -14 -15 -8 -15 6 0 17 7 24 15 16 19 9 19 -16 0z"/> <path d="M2241 1998 c-1 -10 -1 -21 -2 -25 0 -5 10 -15 23 -23 21 -13 22 -13 11 1 -7 8 -17 26 -22 40 -7 17 -10 19 -10 7z"/> <path d="M2413 1682 c0 -12 5 -22 9 -22 11 0 10 12 -2 30 -7 12 -9 10 -7 -8z"/> <path d="M1174 1779 c-24 -31 -26 -43 -5 -24 13 11 26 19 30 18 3 -1 8 1 11 4 3 4 0 3 -7 0 -6 -4 -13 -2 -15 4 -3 8 -7 7 -14 -2z"/> <path d="M1502 1723 c6 -7 14 -13 19 -13 5 0 9 6 9 13 0 7 -9 13 -19 13 -15 0 -17 -3 -9 -13z"/> <path d="M892 1611 c-6 -4 23 -8 65 -9 43 -2 75 -1 73 1 -9 8 -127 15 -138 8z"/> <path d="M1256 1565 c-11 -8 -15 -15 -9 -15 6 0 16 7 23 15 16 19 11 19 -14 0z"/> <path d="M1307 1557 l-27 -23 22 -20 c61 -53 69 -58 63 -43 -3 8 -19 23 -35 32 -19 12 -27 23 -23 33 5 13 7 13 15 2 6 -9 8 -8 6 7 -2 12 2 19 10 17 8 -1 11 2 7 8 -8 12 -5 13 -38 -13z"/> <path d="M1205 1620 c-3 -5 -1 -10 4 -10 6 0 11 5 11 10 0 6 -2 10 -4 10 -3 0 -8 -4 -11 -10z"/> <path d="M1947 1608 c2 -5 -1 -8 -6 -8 -6 0 -11 -5 -11 -11 0 -7 7 -8 18 -4 9 4 22 7 27 7 6 -1 31 -3 58 -5 29 -2 47 1 47 7 0 6 5 4 10 -4 5 -8 10 -10 10 -4 0 6 -8 18 -17 25 -9 8 -14 9 -10 3 4 -7 -2 -11 -18 -11 -14 0 -23 2 -21 6 2 3 -18 6 -44 6 -26 0 -46 -3 -43 -7z"/> <path d="M1528 1603 c7 -3 16 -2 19 1 4 3 -2 6 -13 5 -11 0 -14 -3 -6 -6z"/> <path d="M1670 1549 c0 -5 -4 -7 -10 -4 -6 4 -9 -10 -9 -37 2 -40 2 -41 8 -11 5 25 9 30 20 23 11 -6 12 -12 3 -23 -9 -11 -8 -14 3 -14 19 0 20 36 1 43 -8 3 -12 12 -9 20 3 8 2 14 -1 14 -3 0 -6 -5 -6 -11z"/> <path d="M1786 1534 c-3 -8 -2 -12 4 -9 6 3 10 1 10 -5 0 -6 4 -9 10 -5 10 6 2 35 -10 35 -4 0 -11 -7 -14 -16z"/> <path d="M1870 1545 c0 -5 5 -17 10 -25 5 -8 10 -10 10 -5 0 6 -5 17 -10 25 -5 8 -10 11 -10 5z"/> <path d="M2250 1515 c-9 -11 -15 -12 -20 -5 -5 7 -11 6 -20 -5 -11 -13 -10 -14 5 -9 14 6 16 4 10 -7 -5 -8 4 -3 18 10 15 14 27 26 27 28 0 7 -8 2 -20 -12z"/> <path d="M1917 1466 c-10 -26 -8 -33 3 -16 8 12 10 10 9 -10 -4 -45 1 -58 18 -56 24 4 29 27 8 42 -11 9 -15 20 -10 36 4 16 3 19 -3 9 -8 -11 -10 -11 -14 0 -3 9 -6 8 -11 -5z m34 -50 c5 3 9 0 9 -6 0 -15 -23 -7 -26 8 -1 7 0 8 3 2 2 -5 9 -8 14 -4z"/> <path d="M1957 1460 c-3 -11 -3 -20 -1 -20 2 0 8 9 14 20 6 11 7 20 2 20 -6 0 -12 -9 -15 -20z"/> <path d="M2170 1465 c-10 -12 -10 -15 1 -15 11 0 11 -2 -1 -10 -8 -5 -10 -10 -5 -10 6 1 19 7 29 15 11 8 28 15 38 15 10 0 18 4 18 9 0 13 -41 10 -59 -3 -11 -8 -13 -8 -7 2 10 17 1 15 -14 -3z"/> <path d="M1881 1462 c-1 -7 -6 -10 -11 -7 -6 4 -9 3 -8 -2 2 -4 -11 -27 -27 -51 -32 -45 -69 -63 -88 -42 -7 8 -8 11 -1 7 6 -4 24 8 40 25 16 18 21 26 12 19 -18 -14 -21 -11 -19 24 0 14 -1 16 -6 5 -3 -8 -17 -32 -30 -54 -14 -21 -19 -35 -11 -31 7 3 4 -1 -6 -9 -11 -9 -26 -16 -33 -16 -7 0 -13 -4 -13 -9 0 -5 17 -3 38 5 20 7 47 13 59 14 12 0 28 6 35 13 7 8 20 12 28 10 13 -4 13 -3 1 5 -12 9 -12 13 -2 26 7 9 16 14 20 12 4 -3 13 -1 21 4 11 7 18 2 27 -18 12 -26 13 -26 7 -2 -9 37 -32 87 -33 72z m-1 -37 c-7 -9 -15 -13 -18 -10 -3 2 1 11 8 20 7 9 15 13 18 10 3 -2 -1 -11 -8 -20z m-114 -41 c-4 -9 -9 -15 -11 -12 -3 3 -3 13 1 22 4 9 9 15 11 12 3 -3 3 -13 -1 -22z"/> <path d="M1528 1413 c6 -2 18 -2 25 0 6 3 1 5 -13 5 -14 0 -19 -2 -12 -5z"/> <path d="M1670 1405 c7 -8 17 -15 22 -15 6 0 5 7 -2 15 -7 8 -17 15 -22 15 -6 0 -5 -7 2 -15z"/> <path d="M1620 1401 c13 -10 13 -11 0 -11 -13 0 -13 -1 0 -11 12 -8 9 -10 -12 -6 -17 2 -25 0 -21 -6 4 -7 -6 -7 -28 -3 -94 21 -117 25 -149 24 -19 0 -26 -2 -15 -4 11 -3 38 -9 60 -14 22 -5 60 -12 85 -16 54 -7 76 -18 90 -45 9 -16 14 -18 25 -9 13 11 10 44 -4 36 -3 -2 -19 3 -36 11 l-30 14 35 -6 c22 -3 30 -2 21 4 -11 7 -9 10 9 16 25 8 17 19 -20 30 -19 5 -21 4 -10 -4z m28 -96 c-3 -3 -9 2 -12 12 -6 14 -5 15 5 6 7 -7 10 -15 7 -18z"/> <path d="M1578 1393 c7 -3 16 -2 19 1 4 3 -2 6 -13 5 -11 0 -14 -3 -6 -6z"/> <path d="M2075 1380 c-2 -4 5 -11 15 -18 16 -10 21 -9 29 6 7 14 5 17 -16 17 -14 0 -26 -2 -28 -5z"/> <path d="M1866 1371 c-4 -5 3 -7 14 -4 23 6 26 13 6 13 -8 0 -17 -4 -20 -9z"/> <path d="M2125 1337 c-49 -32 -50 -35 -16 -42 16 -3 33 6 57 30 19 19 34 36 34 38 0 12 -35 0 -75 -26z m32 -5 c-25 -26 -64 -41 -51 -20 3 5 9 6 13 3 5 -2 19 7 31 20 13 14 26 25 29 25 2 0 -7 -13 -22 -28z"/> <path d="M1058 1323 c-62 -28 -73 -40 -34 -40 17 0 23 4 19 13 -5 14 12 20 20 7 2 -5 2 -2 0 6 -2 8 2 11 12 7 11 -4 14 -2 9 6 -5 7 0 9 14 6 12 -4 20 -2 17 2 -3 5 1 11 7 13 7 3 9 6 3 6 -5 0 -36 -11 -67 -26z"/> <path d="M960 1300 c-8 -5 -24 -7 -35 -3 -18 5 -18 5 -2 -12 10 -10 16 -20 13 -22 -3 -3 -13 2 -22 11 -18 18 -35 17 -42 -3 -3 -8 3 -12 14 -10 11 1 27 -1 37 -6 15 -6 16 -10 5 -16 -8 -6 -9 -9 -2 -9 7 0 21 18 33 40 11 22 20 40 18 40 -1 0 -9 -5 -17 -10z"/> <path d="M1859 1289 l-24 -20 28 17 c15 9 27 18 27 20 0 8 -8 4 -31 -17z"/> <path d="M1444 1275 c-9 -18 -9 -25 0 -28 6 -3 -1 -10 -16 -17 -31 -15 -45 -40 -22 -40 8 0 13 4 9 9 -6 11 28 33 39 26 3 -3 4 -2 1 2 -3 3 1 13 8 21 10 13 9 14 -1 8 -10 -6 -11 -1 -6 18 8 33 2 33 -12 1z"/> <path d="M1821 1275 c-2 -16 -5 -41 -6 -54 -3 -29 15 -91 27 -91 16 0 21 31 9 53 -10 18 -11 19 -6 2 4 -13 3 -17 -4 -10 -5 6 -12 37 -14 70 -2 33 -5 47 -6 30z"/> <path d="M804 1271 c0 -11 4 -17 8 -15 4 3 8 12 8 20 0 8 -4 14 -8 14 -4 0 -8 -9 -8 -19z"/> <path d="M840 1283 c6 -3 7 -11 0 -23 -7 -13 -7 -21 2 -26 7 -5 8 -3 3 6 -5 8 -3 11 6 8 8 -3 13 -11 12 -17 -3 -12 7 -14 31 -5 23 9 20 27 -4 21 -18 -5 -49 19 -42 32 2 3 -1 6 -7 7 -7 2 -7 0 -1 -3z"/> <path d="M1975 1280 c-3 -5 -1 -10 4 -10 6 0 11 5 11 10 0 6 -2 10 -4 10 -3 0 -8 -4 -11 -10z"/> <path d="M673 1253 c-4 -9 -1 -19 5 -21 9 -3 9 -9 2 -23 -14 -25 2 -25 18 1 9 15 10 26 2 40 -13 24 -19 25 -27 3z"/> <path d="M1544 1246 c-13 -14 -35 -128 -23 -120 4 2 11 -5 14 -17 4 -11 9 -18 12 -15 3 2 0 20 -7 39 -7 23 -8 47 -2 69 9 33 9 32 16 -22 9 -63 11 -75 21 -120 5 -24 4 -31 -5 -25 -9 6 -9 2 0 -15 6 -12 13 -34 15 -48 3 -19 -3 -12 -20 23 -13 28 -24 57 -24 66 -1 8 -7 24 -15 35 -13 17 -14 13 -12 -39 1 -32 -1 -60 -6 -63 -4 -3 -1 -21 7 -41 19 -44 19 -52 2 -29 -13 18 -14 18 -21 1 -3 -10 -4 -20 -1 -23 3 -3 5 0 5 7 0 7 5 9 13 4 16 -10 37 -13 37 -5 -1 4 -7 18 -15 32 -8 14 -14 34 -14 45 0 13 6 6 18 -20 26 -53 26 -38 1 25 -11 28 -20 58 -19 68 0 9 8 -3 16 -28 9 -25 24 -58 34 -74 32 -52 34 -6 8 154 -18 110 -27 145 -35 136z"/> <path d="M611 1224 c0 -11 3 -14 6 -6 3 7 2 16 -1 19 -3 4 -6 -2 -5 -13z"/> <path d="M796 1225 c-3 -8 -1 -15 4 -15 6 0 10 7 10 15 0 8 -2 15 -4 15 -2 0 -6 -7 -10 -15z"/> <path d="M890 1178 c-10 -23 -16 -46 -13 -51 7 -11 32 24 33 46 0 10 4 16 8 13 4 -2 8 4 8 15 0 32 -16 22 -36 -23z"/> <path d="M955 1211 c-3 -5 -1 -12 4 -15 5 -3 11 1 15 9 6 16 -9 21 -19 6z"/> <path d="M1758 1213 c7 -3 16 -2 19 1 4 3 -2 6 -13 5 -11 0 -14 -3 -6 -6z"/> <path d="M1436 1202 c-3 -5 1 -9 9 -9 8 0 12 4 9 9 -3 4 -7 8 -9 8 -2 0 -6 -4 -9 -8z"/> <path d="M621 1184 c0 -11 3 -14 6 -6 3 7 2 16 -1 19 -3 4 -6 -2 -5 -13z"/> <path d="M1746 1183 c-6 -14 -5 -15 5 -6 7 7 10 15 7 18 -3 3 -9 -2 -12 -12z"/> <path d="M1411 1162 c-7 -13 -6 -23 2 -32 10 -10 9 -12 -5 -7 -10 3 -19 3 -22 -1 -9 -15 33 -11 45 4 7 8 8 14 3 12 -9 -3 -14 4 -14 23 0 5 5 7 12 3 7 -4 8 -3 4 4 -10 16 -14 15 -25 -6z"/> <path d="M2109 1153 c-13 -16 -12 -17 4 -4 16 13 21 21 13 21 -2 0 -10 -8 -17 -17z"/> <path d="M632 1130 c0 -19 2 -27 5 -17 2 9 2 25 0 35 -3 9 -5 1 -5 -18z"/> <path d="M760 1140 c-1 -3 -3 -20 -5 -38 -2 -22 1 -30 7 -24 5 5 8 22 5 38 -2 16 -5 27 -7 24z"/> <path d="M1890 1098 c-12 -22 -12 -22 6 -6 10 10 15 20 12 24 -4 3 -12 -5 -18 -18z"/> <path d="M790 1100 c-24 -15 -7 -18 20 -3 14 7 18 13 10 13 -8 0 -22 -4 -30 -10z"/> <path d="M1419 1093 c-13 -16 -12 -17 4 -4 16 13 21 21 13 21 -2 0 -10 -8 -17 -17z"/> <path d="M1974 1101 c3 -5 -1 -14 -9 -21 -8 -7 -15 -9 -15 -5 0 4 -7 2 -15 -5 -8 -7 -13 -15 -11 -19 5 -10 -31 -66 -41 -64 -5 1 -10 -5 -10 -13 0 -7 2 -14 3 -14 5 0 114 137 114 144 0 3 -5 6 -11 6 -5 0 -8 -4 -5 -9z"/> <path d="M1550 1065 c0 -8 4 -15 10 -15 5 0 7 7 4 15 -4 8 -8 15 -10 15 -2 0 -4 -7 -4 -15z"/> <path d="M891 1021 c-7 -5 -12 -12 -12 -17 1 -5 -4 -9 -11 -9 -6 0 -12 -9 -14 -19 -2 -16 3 -13 29 12 30 30 35 49 8 33z"/> <path d="M924 1024 c3 -7 -1 -18 -10 -25 -22 -18 -43 -63 -40 -85 2 -10 -2 -22 -8 -26 -7 -5 -5 -13 8 -25 16 -15 18 -15 7 -1 -10 14 -9 19 13 33 28 18 26 38 -2 28 -18 -7 -17 -5 12 17 13 10 17 10 12 3 -4 -7 -2 -13 3 -13 15 0 14 11 -5 31 -15 17 -15 18 3 15 11 -3 26 0 34 5 11 7 10 13 -10 31 -13 13 -21 18 -17 12z"/> <path d="M1774 998 l-19 -23 23 19 c21 18 27 26 19 26 -2 0 -12 -10 -23 -22z"/> <path d="M1723 977 c-6 -12 -14 -31 -18 -41 -6 -20 -6 -20 17 -1 13 11 25 22 28 24 3 2 -3 1 -12 -2 -21 -7 -24 3 -6 21 6 6 9 14 7 17 -3 3 -10 -5 -16 -18z"/> <path d="M1123 954 c-13 -14 -23 -31 -23 -37 0 -9 2 -9 8 -1 4 6 17 16 30 23 12 6 22 18 22 26 0 22 -12 18 -37 -11z"/> <path d="M1060 945 c0 -8 7 -15 16 -15 14 0 14 3 4 15 -7 8 -14 15 -16 15 -2 0 -4 -7 -4 -15z"/> <path d="M922 908 c-7 -7 -12 -16 -12 -20 0 -15 15 -8 28 12 13 22 3 27 -16 8z"/> <path d="M963 871 c1 -28 6 -46 11 -41 5 5 14 6 20 4 6 -2 16 4 22 14 10 15 8 18 -10 20 -17 1 -18 -1 -6 -9 13 -9 13 -10 0 -6 -8 2 -17 12 -18 22 -3 11 0 15 8 10 8 -5 7 0 -2 14 -20 33 -27 25 -25 -28z"/> <path d="M1055 910 c3 -5 8 -10 11 -10 2 0 4 5 4 10 0 6 -5 10 -11 10 -5 0 -7 -4 -4 -10z"/> <path d="M1148 913 c7 -3 16 -2 19 1 4 3 -2 6 -13 5 -11 0 -14 -3 -6 -6z"/> <path d="M1197 854 c-11 -12 13 -44 33 -44 23 0 32 13 24 34 -6 16 -45 22 -57 10z m43 -19 c0 -8 -4 -15 -9 -15 -13 0 -22 16 -14 24 11 11 23 6 23 -9z"/> <path d="M980 817 c0 -9 -4 -17 -10 -17 -12 0 -13 -40 -1 -58 6 -10 10 -10 21 2 10 13 9 17 -4 22 -9 3 -16 10 -16 16 0 5 4 7 9 4 13 -9 23 26 11 38 -7 7 -10 5 -10 -7z"/> <path d="M1174 812 c13 -21 116 -60 116 -44 0 5 -19 16 -42 24 -24 8 -52 19 -62 23 -14 6 -17 5 -12 -3z"/> <path d="M1799 803 c-13 -16 -12 -17 4 -4 16 13 21 21 13 21 -2 0 -10 -8 -17 -17z"/> <path d="M907 773 c-14 -30 -14 -34 -2 -19 14 19 15 19 16 -10 1 -28 1 -28 8 -4 4 14 4 26 -1 28 -4 2 -3 12 2 23 6 10 7 19 2 19 -4 0 -16 -17 -25 -37z"/> <path d="M1490 776 c0 -31 6 -34 13 -6 3 11 1 23 -4 26 -5 3 -9 -6 -9 -20z"/> <path d="M1531 784 c0 -11 3 -14 6 -6 3 7 2 16 -1 19 -3 4 -6 -2 -5 -13z"/> <path d="M1081 744 c0 -11 3 -14 6 -6 3 7 2 16 -1 19 -3 4 -6 -2 -5 -13z"/> <path d="M1056 701 c-9 -14 68 -96 82 -87 8 5 0 21 -25 52 -38 45 -48 51 -57 35z"/> <path d="M961 534 c0 -11 3 -14 6 -6 3 7 2 16 -1 19 -3 4 -6 -2 -5 -13z"/> <path d="M1141 516 c-18 -19 -20 -26 -9 -32 21 -14 43 -15 29 -1 -8 8 -7 15 5 28 24 27 0 31 -25 5z m10 -9 c-6 -8 -7 -18 -3 -22 4 -5 1 -5 -6 -1 -10 6 -10 11 -1 22 6 8 14 14 16 14 3 0 0 -6 -6 -13z"/> <path d="M957 469 c4 -13 8 -18 11 -10 2 7 -1 18 -6 23 -8 8 -9 4 -5 -13z"/> <path d="M1485 1510 c-3 -5 -1 -10 4 -10 6 0 11 5 11 10 0 6 -2 10 -4 10 -3 0 -8 -4 -11 -10z"/> <path d="M1180 1509 c0 -5 -6 -7 -12 -3 -7 4 -10 4 -6 -1 11 -11 67 -14 74 -4 3 5 -1 6 -9 3 -8 -3 -18 -1 -22 5 -8 14 -25 14 -25 0z"/> <path d="M1067 1498 c-9 -5 -17 -14 -17 -19 0 -6 6 -7 13 -2 6 4 18 8 25 9 21 4 25 11 9 17 -7 3 -21 1 -30 -5z"/> <path d="M1125 1490 c3 -16 0 -20 -13 -16 -9 3 -24 1 -32 -5 -12 -9 -11 -10 6 -6 29 6 99 -34 98 -56 -2 -21 10 -22 26 -2 7 8 16 12 21 9 5 -3 9 3 9 12 0 16 -2 16 -17 1 -16 -13 -20 -13 -31 -1 -7 8 -11 14 -10 15 2 0 11 2 21 4 11 2 22 7 25 11 4 4 -1 4 -10 1 -10 -3 -20 -2 -23 3 -4 6 -13 7 -23 1 -27 -13 -47 -2 -25 15 17 13 17 14 -1 7 -13 -4 -17 -3 -12 5 3 6 2 13 -3 17 -6 3 -8 -4 -6 -15z"/> <path d="M1010 1470 c0 -5 7 -7 15 -4 8 4 15 8 15 10 0 2 -7 4 -15 4 -8 0 -15 -4 -15 -10z"/> <path d="M1240 1466 c0 -2 8 -10 18 -17 15 -13 16 -12 3 4 -13 16 -21 21 -21 13z"/> <path d="M1485 1450 c-3 -5 -2 -10 4 -10 5 0 13 5 16 10 3 6 2 10 -4 10 -5 0 -13 -4 -16 -10z"/> <path d="M1050 1063 c1 -4 12 -21 26 -38 l25 -30 -15 35 c-13 31 -37 54 -36 33z"/> <path d="M681 1004 c0 -11 3 -14 6 -6 3 7 2 16 -1 19 -3 4 -6 -2 -5 -13z"/> <path d="M1417 981 c-4 -17 -3 -21 5 -13 5 5 8 16 6 23 -3 8 -7 3 -11 -10z"/> <path d="M1225 375 c-16 -14 -25 -25 -19 -25 6 0 21 11 34 25 30 32 24 31 -15 0z"/> <path d="M1194 329 c-8 -14 14 -19 25 -6 8 10 7 14 -5 14 -8 0 -17 -4 -20 -8z"/> <path d="M1331 314 c0 -11 3 -14 6 -6 3 7 2 16 -1 19 -3 4 -6 -2 -5 -13z"/> <path d="M1300 299 c0 -5 5 -7 10 -4 6 3 10 8 10 11 0 2 -4 4 -10 4 -5 0 -10 -5 -10 -11z"/> <path d="M1159 199 l-24 -20 30 17 c39 24 40 24 28 24 -6 0 -21 -9 -34 -21z"/> <path d="M581 2907 c-13 -21 -12 -21 5 -5 10 10 16 20 13 22 -3 3 -11 -5 -18 -17z"/> <path d="M827 2840 c-13 -15 -14 -26 -7 -46 13 -32 13 -43 0 -24 -7 12 -10 8 -10 -14 0 -34 -5 -32 -14 7 -4 19 -3 26 4 22 5 -3 10 1 10 9 0 10 -6 13 -15 10 -11 -5 -15 -20 -14 -58 1 -28 -2 -69 -6 -90 -7 -34 -6 -38 8 -33 13 5 15 -1 11 -35 -4 -29 0 -45 12 -59 9 -11 12 -19 6 -19 -6 0 -18 10 -26 22 -15 21 -16 21 -16 3 1 -11 9 -38 20 -60 11 -22 19 -48 20 -57 0 -9 5 -20 10 -23 6 -4 10 11 10 37 0 24 5 50 10 58 6 9 10 10 10 3 0 -6 3 -20 6 -30 5 -15 4 -15 -5 -3 -13 18 -15 1 -2 -18 6 -10 12 -5 21 18 7 17 15 29 17 26 3 -2 0 -13 -6 -24 -8 -15 -7 -27 5 -49 l16 -28 -6 40 -5 40 20 -25 20 -25 -15 32 c-9 18 -16 34 -16 37 0 3 25 -4 57 -15 76 -26 94 -24 128 11 16 17 34 30 40 30 19 0 86 183 72 196 -3 3 -8 -9 -12 -27 -7 -31 -8 -32 -21 -14 -17 23 -19 12 -2 -14 9 -15 7 -30 -11 -74 -28 -69 -58 -89 -33 -22 9 24 19 42 24 39 4 -3 8 2 8 10 0 23 -22 66 -34 66 -6 0 -21 19 -34 41 -13 22 -26 38 -30 35 -3 -4 5 -20 17 -37 17 -23 22 -41 19 -70 -2 -21 1 -41 7 -43 5 -2 4 -5 -3 -5 -7 -1 -11 -4 -9 -8 3 -5 -7 -33 -22 -63 -29 -62 -25 -61 -132 -29 -88 25 -120 51 -113 88 5 21 0 35 -15 50 -28 28 -27 29 14 25 29 -2 33 -1 22 10 -7 9 -14 10 -18 4 -4 -6 -8 4 -11 21 -2 17 -3 31 -2 31 2 0 15 -11 29 -26 15 -15 30 -22 37 -17 9 5 5 9 -12 13 -36 8 -39 52 -7 84 14 14 27 30 29 36 3 11 28 -61 42 -124 12 -52 15 -21 5 49 -7 53 -16 76 -36 97 -32 33 -43 35 -66 8z m41 -22 c2 -9 -4 -18 -13 -21 -11 -5 -15 0 -15 19 0 28 23 29 28 2z m255 -172 c7 -18 -8 -85 -22 -99 -6 -6 -11 -19 -11 -28 0 -10 -4 -20 -9 -24 -10 -5 -3 26 17 76 6 14 9 40 8 57 -2 33 8 43 17 18z m-306 -188 c-3 -7 -5 -2 -5 12 0 14 2 19 5 13 2 -7 2 -19 0 -25z"/> <path d="M933 2789 c4 -13 7 -31 7 -39 0 -13 1 -13 11 0 8 11 9 6 5 -20 -5 -28 -4 -31 4 -15 8 16 9 13 5 -15 -4 -25 -2 -31 5 -20 8 12 10 8 11 -15 1 -16 3 -23 6 -14 2 9 -1 35 -6 60 -5 24 -8 45 -6 47 6 7 35 -69 30 -78 -3 -4 4 -19 15 -31 11 -13 20 -22 20 -19 0 3 2 35 3 72 1 49 -1 64 -9 57 -7 -6 -10 -25 -7 -49 3 -22 2 -40 -3 -40 -5 0 -9 16 -10 37 0 26 -8 42 -25 55 -13 11 -33 26 -43 35 -18 14 -19 14 -13 -8z"/> <path d="M860 2762 c-22 -17 -22 -18 -2 -41 10 -14 24 -21 30 -17 13 8 12 56 -1 56 -4 0 -5 5 -2 10 9 15 0 12 -25 -8z"/> <path d="M1060 2775 c0 -10 53 -81 66 -88 20 -12 18 -3 -17 47 -26 39 -49 58 -49 41z"/> <path d="M586 2670 c-4 -9 1 -52 10 -95 9 -44 19 -99 23 -123 5 -23 11 -46 16 -50 4 -4 5 4 2 18 -3 14 -8 57 -11 95 l-6 70 18 -50 c10 -27 23 -51 30 -53 9 -2 9 3 -2 20 -7 13 -17 37 -21 53 -3 17 -13 37 -20 45 -7 8 -18 31 -23 50 -7 24 -11 30 -16 20z"/> <path d="M1232 2661 c-8 -4 -14 -12 -15 -17 -1 -5 -6 -8 -10 -6 -5 1 -6 -2 -2 -8 3 -5 1 -10 -5 -10 -6 0 -9 -4 -5 -9 3 -5 1 -12 -5 -16 -5 -3 -10 -11 -10 -17 0 -9 41 41 64 80 8 14 6 15 -12 3z"/> <path d="M901 2624 c0 -11 3 -14 6 -6 3 7 2 16 -1 19 -3 4 -6 -2 -5 -13z"/> <path d="M954 2623 c-4 -10 -9 -22 -9 -28 -4 -21 -34 -79 -35 -65 0 9 7 27 16 40 l16 25 -21 -24 c-26 -29 -28 -61 -3 -61 22 0 39 33 48 90 7 42 2 52 -12 23z"/> <path d="M839 2584 c-10 -13 -10 -17 2 -25 20 -13 27 -11 38 10 17 31 -16 44 -40 15z m26 -4 c3 -5 1 -10 -4 -10 -6 0 -11 5 -11 10 0 6 2 10 4 10 3 0 8 -4 11 -10z"/> <path d="M650 2589 c0 -18 25 -77 41 -94 10 -11 18 -24 18 -30 1 -5 8 -10 16 -10 8 0 27 -13 41 -30 18 -22 22 -24 14 -7 -6 12 -7 22 -3 22 4 0 -3 7 -15 16 -26 18 -42 46 -47 82 -4 27 -4 27 10 -3 8 -16 23 -41 35 -55 l20 -25 -16 48 c-18 53 -50 80 -61 51 -5 -15 -10 -13 -30 12 -12 16 -23 26 -23 23z"/> <path d="M2245 1210 c14 -65 23 -125 20 -129 -3 -3 -25 68 -29 96 -1 7 -6 16 -10 20 -4 4 -5 -14 -1 -42 4 -27 11 -52 15 -55 3 -3 12 -21 18 -40 6 -19 10 -25 8 -12 -6 34 11 17 18 -19 3 -18 8 -30 11 -27 6 6 -35 198 -46 218 -7 10 -8 7 -4 -10z"/> <path d="M2070 1031 c0 -7 -4 -9 -10 -6 -14 9 -13 3 14 -54 19 -42 25 -48 31 -34 16 36 14 49 -10 77 -14 16 -25 24 -25 17z m24 -61 c5 -17 4 -20 -2 -10 -5 8 -13 26 -16 40 -5 17 -4 20 2 10 5 -8 13 -26 16 -40z"/> <path d="M2124 969 c-4 -8 -3 -9 4 -5 18 11 14 -5 -5 -28 -18 -21 -18 -21 5 -2 22 19 32 10 11 -11 -17 -17 -1 -37 17 -22 12 10 14 7 12 -12 -2 -14 2 -23 8 -22 7 1 22 -18 35 -42 13 -25 27 -45 31 -45 12 0 9 10 -12 40 -11 15 -17 30 -14 33 8 8 -26 68 -35 62 -5 -2 -14 9 -21 25 -15 36 -26 45 -36 29z m28 -61 c-7 -7 -12 -8 -12 -2 0 14 12 26 19 19 2 -3 -1 -11 -7 -17z m42 -14 c3 -8 2 -12 -4 -9 -6 3 -10 1 -10 -6 0 -7 -2 -10 -5 -7 -5 5 4 38 10 38 2 0 6 -7 9 -16z"/> <path d="M2005 878 c14 -24 30 -42 36 -40 6 1 8 -2 4 -8 -3 -5 -2 -17 3 -26 8 -15 10 -15 16 1 6 16 -16 60 -25 50 -3 -2 -13 11 -24 30 -10 19 -22 35 -27 35 -5 0 2 -19 17 -42z"/> <path d="M2421 885 c0 -5 11 -39 25 -75 13 -36 22 -54 19 -40 -2 14 -7 36 -10 50 -3 14 5 4 17 -22 12 -27 26 -48 31 -48 6 0 5 5 0 13 -6 6 -16 29 -23 50 -6 21 -17 36 -23 34 -7 -2 -17 8 -24 22 -6 14 -12 22 -12 16z"/> <path d="M2077 817 c-3 -7 -1 -20 4 -28 5 -8 9 -10 9 -5 0 5 7 2 17 -5 15 -13 15 -12 5 6 -25 44 -29 48 -35 32z"/> <path d="M1714 766 c5 -14 2 -17 -9 -12 -9 3 -13 2 -10 -4 3 -6 -1 -13 -9 -16 -9 -3 -14 -10 -11 -15 3 -4 12 -6 20 -3 8 4 12 11 8 17 -4 6 0 8 10 4 23 -9 28 5 10 28 -14 18 -15 18 -9 1z"/> <path d="M1434 581 c4 -6 2 -11 -3 -11 -35 0 -54 -17 -42 -39 7 -11 4 -22 -7 -35 -16 -18 -16 -18 6 -5 12 8 21 18 19 23 -4 11 32 56 45 56 5 0 1 -12 -8 -27 -9 -17 -10 -21 -2 -11 13 15 15 15 26 -3 7 -11 17 -17 22 -14 16 10 11 28 -6 21 -10 -4 -14 -1 -11 6 2 7 11 12 20 12 10 -1 13 4 10 14 -4 10 -2 13 5 8 6 -3 13 -2 16 3 7 10 -13 9 -31 -2 -6 -4 -14 -1 -16 5 -4 10 -6 10 -6 0 -1 -10 -6 -10 -22 -1 -15 8 -19 8 -15 0z"/> <path d="M1397 475 c-20 -19 -32 -35 -26 -35 5 0 7 -6 3 -12 -4 -7 2 -5 14 6 12 10 20 23 19 28 -1 6 6 12 16 13 25 5 33 13 21 25 -7 7 -23 -2 -47 -25z"/> <path d="M1244 448 l-19 -23 23 19 c12 11 22 21 22 23 0 8 -8 2 -26 -19z"/> <path d="M1160 423 c0 -17 14 -23 29 -14 9 6 10 11 2 15 -6 4 -11 1 -11 -6 0 -9 -3 -9 -10 2 -6 9 -10 10 -10 3z"/> <path d="M1134 399 c-3 -6 -2 -15 3 -20 5 -5 9 -1 9 11 0 23 -2 24 -12 9z"/> <path d="M1107 376 c-4 -10 -1 -16 9 -16 8 0 13 -4 9 -9 -3 -5 -1 -12 5 -16 6 -4 7 -11 4 -17 -4 -7 -2 -8 5 -4 6 4 8 13 4 19 -4 7 -8 14 -8 17 0 3 -5 13 -11 24 -10 16 -12 16 -17 2z"/> <path d="M1025 349 c-4 -6 -5 -12 -2 -15 2 -3 7 2 10 11 7 17 1 20 -8 4z"/> <path d="M1046 335 c-9 -26 -7 -32 5 -12 6 10 9 21 6 23 -2 3 -7 -2 -11 -11z"/> <path d="M1104 327 c2 -15 0 -27 -5 -27 -6 0 -7 -5 -3 -11 4 -8 9 -7 14 2 8 13 5 47 -5 58 -4 3 -4 -7 -1 -22z"/> </g> </svg> 