<?xml version="1.0" standalone="no"?>
<!DOCTYPE svg PUBLIC "-//W3C//DTD SVG 20010904//EN"
 "http://www.w3.org/TR/2001/REC-SVG-20010904/DTD/svg10.dtd">
<svg version="1.0" xmlns="http://www.w3.org/2000/svg"
 width="300.000000pt" height="300.000000pt" viewBox="0 0 300.000000 300.000000"
 preserveAspectRatio="xMidYMid meet">
<metadata>
Created by potrace 1.10, written by Peter Selinger 2001-2011
</metadata>
<g transform="translate(0.000000,300.000000) scale(0.050000,-0.050000)"
fill="#ffffff" stroke="none">
<path d="M759 5823 c-453 -118 -639 -428 -639 -1067 l0 -336 2880 0 2880 0 0
336 c0 646 -198 968 -660 1073 -218 49 -4269 45 -4461 -6z m1081 -239 c0 -9
-41 -56 -91 -105 -248 -243 -243 -477 13 -707 126 -113 117 -118 -226 -117
-327 0 -329 1 -213 103 261 229 271 461 32 710 -129 135 -133 132 195 132 160
0 290 -7 290 -16z m3381 -16 c306 -86 398 -232 399 -634 l0 -296 -1708 6
c-940 3 -1715 13 -1723 21 -9 8 26 53 77 100 240 224 248 484 20 711 -58 59
-106 111 -106 115 0 30 2934 7 3041 -23z m-4341 2 c0 -5 -37 -48 -82 -94 -220
-227 -216 -461 14 -691 134 -134 153 -120 -188 -137 l-284 -14 0 258 c0 308
35 407 189 543 110 97 351 190 351 135z m365 -265 c152 -153 49 -405 -165
-405 -186 0 -297 193 -209 363 66 127 266 150 374 42z m890 35 c145 -88 161
-267 34 -378 -153 -135 -389 -35 -389 164 0 197 193 313 355 214z"/>
<path d="M120 2424 c0 -1652 -1 -1637 115 -1849 105 -194 342 -363 581 -413
185 -39 4230 -30 4404 9 227 52 458 228 559 427 101 197 101 204 101 1826 l0
1516 -2880 0 -2880 0 0 -1516z m5500 -195 c0 -1389 -2 -1454 -38 -1525 -57
-109 -158 -204 -282 -262 l-110 -52 -2190 0 -2191 0 -133 66 c-134 66 -212
142 -288 284 -36 66 -38 143 -44 1505 l-5 1435 2640 0 2641 0 0 -1451z"/>
<path d="M2763 3364 c-469 -249 -580 -704 -273 -1124 37 -49 94 -111 128 -136
81 -59 78 -75 -13 -81 -324 -20 -765 -498 -765 -829 0 -221 176 -471 375 -530
170 -51 1478 -32 1596 23 170 80 306 278 324 473 25 275 -387 786 -685 850
-33 7 -72 17 -87 22 -18 5 14 53 93 136 243 261 307 533 187 798 -167 369
-581 556 -880 398z m370 -194 c484 -144 483 -801 -1 -941 -546 -157 -855 639
-350 902 135 70 216 79 351 39z m-393 -1412 c192 -49 341 -45 527 14 l117 36
111 -58 c326 -171 526 -525 400 -710 -105 -155 -73 -149 -882 -156 l-723 -6
-88 47 c-249 131 -205 426 106 710 188 171 212 178 432 123z"/>
</g>
</svg>
