<?xml version="1.0" standalone="no"?>
<!DOCTYPE svg PUBLIC "-//W3C//DTD SVG 20010904//EN"
 "http://www.w3.org/TR/2001/REC-SVG-20010904/DTD/svg10.dtd">
<svg version="1.0" xmlns="http://www.w3.org/2000/svg"
 width="300.000000pt" height="300.000000pt" viewBox="0 0 300.000000 300.000000"
 preserveAspectRatio="xMidYMid meet">
<metadata>
Created by potrace 1.10, written by Peter Selinger 2001-2011
</metadata>
<g transform="translate(0.000000,300.000000) scale(0.100000,-0.100000)"
fill="#ffffff" stroke="none">
<path d="M312 2890 c0 -14 2 -19 5 -12 2 6 2 18 0 25 -3 6 -5 1 -5 -13z"/>
<path d="M2651 2741 c0 -96 1 -172 3 -170 9 9 15 238 7 289 -7 43 -9 16 -10
-119z"/>
<path d="M2621 2760 c-1 -72 2 -129 7 -126 8 5 7 244 -1 253 -3 2 -6 -55 -6
-127z"/>
<path d="M795 2849 c-32 -12 -64 -34 -91 -63 -30 -33 -47 -43 -61 -40 -11 3
-37 -2 -59 -11 -25 -10 -69 -16 -129 -16 -49 -1 -99 -5 -110 -9 -11 -5 -15 -9
-8 -9 6 -1 14 -9 18 -20 4 -12 14 -18 33 -17 23 1 28 -4 33 -34 l6 -35 2 35 1
35 98 -3 c53 -2 100 -6 104 -10 3 -4 2 -32 -4 -62 -6 -32 -8 -112 -4 -194 3
-77 3 -136 -1 -133 -3 4 -12 2 -20 -4 -7 -6 -13 -8 -13 -3 0 4 -6 -1 -14 -11
-24 -34 -9 -45 60 -45 36 0 64 4 64 10 0 6 -30 10 -67 11 -47 1 -60 3 -43 8
14 4 44 6 66 4 l41 -4 -9 53 c-11 57 -5 347 7 386 8 23 7 23 -64 21 -39 -1
-74 1 -78 4 -3 4 25 8 63 9 l69 1 -55 7 -55 7 72 1 c67 2 73 4 88 30 9 15 31
37 48 50 17 12 25 22 18 22 -8 0 -34 -21 -58 -46 -49 -51 -69 -55 -27 -5 38
46 60 54 144 55 67 1 79 -1 119 -29 24 -16 51 -41 60 -55 12 -20 7 -17 -26 12
-23 20 -52 42 -65 49 -12 6 1 -10 31 -37 30 -27 63 -52 75 -56 12 -3 67 -6
124 -7 64 -1 101 -5 97 -11 -3 -6 -43 -7 -102 -3 -56 4 -94 2 -92 -3 3 -5 17
-35 32 -67 88 -191 154 -526 162 -822 2 -88 2 -153 -1 -144 -8 25 -94 42 -94
19 0 -5 18 -10 40 -10 51 0 53 -21 3 -38 -71 -24 -68 -29 -65 98 3 132 -27
396 -39 345 l-8 -30 2 30 c2 29 4 30 54 33 48 3 53 1 57 -20 9 -40 26 -215 26
-268 0 -27 3 -50 8 -50 8 0 7 31 -10 200 -6 63 -11 123 -12 134 0 17 -9 18
-126 16 -205 -4 -470 2 -425 10 22 4 32 8 23 9 -10 0 -18 6 -18 12 0 5 5 7 10
4 6 -3 10 1 10 9 0 8 -5 18 -12 22 -6 4 -9 3 -5 -2 3 -5 -18 -8 -49 -6 -30 2
-54 8 -54 13 0 5 -5 9 -11 9 -19 0 2 -20 37 -35 24 -10 32 -18 28 -29 -3 -9 5
-29 19 -46 14 -16 35 -60 47 -97 32 -96 143 -323 163 -331 14 -7 7 -21 -15
-28 -18 -6 -7 -11 47 -20 83 -15 161 -17 130 -4 -11 5 -32 9 -48 9 -22 1 -34
12 -63 57 -70 109 -166 317 -188 407 -6 27 -6 27 43 27 l50 0 12 -42 c19 -72
113 -279 170 -377 l54 -92 48 3 c26 2 47 0 47 -4 0 -7 -7 -9 -25 -8 -14 2
-104 -54 -100 -61 3 -4 1 -10 -4 -13 -5 -3 -11 3 -14 14 -5 18 -14 20 -99 21
-103 0 -97 16 7 19 59 2 59 2 20 11 -62 12 -92 10 -110 -7 -25 -25 -2 -41 70
-49 36 -3 65 -10 65 -13 0 -4 -12 -15 -28 -26 -34 -24 -100 -106 -137 -172
l-29 -52 -70 -6 c-143 -14 -148 -24 -11 -25 l130 -1 35 67 c44 87 144 191 234
248 39 24 114 58 166 76 87 30 107 33 225 34 107 2 136 -1 165 -16 62 -32 140
-57 146 -48 3 5 13 9 22 9 16 0 91 73 93 91 1 5 2 13 3 19 0 5 8 15 17 22 23
18 70 103 62 111 -3 4 -1 7 5 7 7 0 11 3 10 8 -5 17 14 52 25 46 7 -4 9 -4 5
1 -5 6 32 96 47 113 6 7 85 -43 85 -54 0 -12 -85 -181 -101 -201 -20 -24 -30
-14 -13 15 l16 27 -23 -27 c-13 -14 -37 -28 -54 -31 -16 -2 6 -5 50 -7 60 -2
73 -4 50 -10 -24 -6 -17 -8 33 -9 34 0 62 -5 62 -10 0 -5 -37 -8 -82 -6 -58 3
-73 2 -48 -4 28 -7 18 -9 -55 -11 -59 -3 -74 -5 -42 -7 26 -2 47 -7 47 -11 0
-16 -93 -122 -107 -122 -8 0 16 -29 53 -65 38 -35 64 -64 58 -65 -6 0 -44 34
-84 76 -53 56 -80 77 -103 81 -30 4 -28 1 23 -32 30 -20 78 -59 105 -86 l51
-49 117 0 c71 0 117 4 117 10 0 6 -26 10 -57 11 -110 1 -138 10 -192 62 l-50
48 47 59 c53 66 57 68 144 78 55 6 63 10 66 30 4 23 -4 28 -52 36 -45 8 -51
20 -29 58 46 75 71 126 66 132 -4 3 1 6 10 6 10 0 17 -4 17 -9 0 -5 13 -11 29
-14 16 -3 35 -12 43 -19 7 -7 20 -14 28 -16 8 -2 25 -14 38 -28 29 -29 46 -30
307 -24 22 0 47 5 55 10 10 6 -49 10 -167 10 -115 0 -183 4 -183 10 0 6 67 10
181 10 117 0 178 3 174 10 -3 6 -39 10 -79 10 l-74 0 10 46 c10 47 -1 110 -29
164 -7 14 -13 31 -13 38 0 6 -4 12 -10 12 -5 0 -10 6 -10 14 0 8 -6 21 -14 28
-7 8 -17 24 -20 36 -4 12 -12 20 -17 17 -5 -4 -9 0 -9 7 0 32 -215 238 -249
238 -6 0 -11 5 -11 10 0 6 -9 10 -20 10 -11 0 -20 5 -20 12 0 6 -3 8 -7 5 -3
-4 -14 0 -24 9 -24 21 -82 37 -149 39 -56 2 -97 -12 -128 -43 -37 -38 -113
-232 -137 -352 -4 -19 -10 -39 -13 -45 -3 -5 -7 -20 -8 -32 -2 -13 -7 -47 -13
-76 -6 -28 -13 -70 -15 -92 -3 -22 -8 -69 -12 -105 -4 -36 -8 -82 -8 -104 l-1
-38 -162 -2 -163 -1 -1 30 c0 16 -2 53 -4 80 -2 28 -6 97 -10 154 -3 57 -11
125 -17 150 -5 25 -12 69 -15 96 -3 28 -9 55 -13 60 -4 6 -6 20 -4 32 2 12 -1
25 -6 28 -6 3 -10 22 -10 41 0 19 -4 34 -9 34 -5 0 -8 12 -8 26 -1 14 -5 35
-11 47 -6 12 -27 64 -46 115 l-34 92 74 0 c62 0 75 3 83 19 17 30 -7 41 -106
46 l-89 4 -47 45 c-49 48 -112 82 -162 89 -16 2 -52 -4 -80 -14z m-395 -159
c0 -5 -9 -10 -20 -10 -11 0 -20 5 -20 10 0 6 9 10 20 10 11 0 20 -4 20 -10z
m139 6 c-7 -8 -118 -10 -126 -3 -3 4 24 7 62 7 38 0 66 -2 64 -4z m130 -97
c-11 -73 -7 -290 7 -336 3 -13 2 -23 -4 -23 -24 0 -40 245 -22 350 7 41 15 79
17 83 12 20 13 -6 2 -74z m1245 -73 c-35 -15 -64 -51 -64 -78 0 -10 -4 -18 -9
-18 -5 0 -18 -22 -29 -48 -26 -60 -83 -254 -77 -261 8 -7 11 1 38 94 14 50 36
117 48 150 l23 60 8 -55 c4 -30 12 -78 18 -106 9 -45 8 -62 -15 -140 -31 -109
-68 -350 -69 -461 -1 -81 -1 -81 -21 -63 -11 10 -32 22 -47 25 -26 7 -28 11
-28 59 0 69 27 294 44 367 10 43 10 59 2 59 -15 0 -47 -209 -56 -357 -3 -62
-10 -116 -14 -120 -13 -12 1 227 19 337 55 331 155 571 239 570 17 -1 15 -4
-10 -14z m186 -21 c30 -13 54 -29 53 -34 -2 -6 3 -8 10 -5 15 5 82 -37 82 -51
0 -6 31 -41 68 -78 110 -112 184 -235 208 -348 9 -41 8 -54 -5 -74 -13 -20
-13 -23 -2 -19 41 16 22 128 -41 244 -41 76 -129 187 -187 235 -23 19 -36 35
-29 35 18 0 146 -133 188 -195 62 -94 99 -184 103 -252 4 -52 1 -63 -14 -71
-22 -12 -123 -7 -173 7 -19 6 -38 8 -44 4 -6 -4 -7 -1 -2 7 6 10 3 12 -13 8
-14 -4 -20 -2 -15 5 4 7 0 8 -11 4 -11 -5 -15 -3 -10 5 5 8 2 9 -10 5 -11 -5
-15 -3 -10 5 5 8 2 9 -10 5 -11 -5 -15 -3 -10 5 5 8 1 9 -12 4 -10 -4 -15 -4
-12 0 10 9 -81 76 -93 68 -23 -14 -216 222 -197 242 3 3 20 -20 37 -51 17 -30
61 -85 97 -122 l66 -68 -51 59 c-52 61 -53 75 -6 76 11 0 27 5 35 11 11 7 6 9
-20 4 -19 -4 -43 -9 -52 -11 -33 -10 -131 174 -144 271 -5 33 -2 44 18 61 53
48 110 51 208 9z m-200 -229 c0 -6 -4 -17 -9 -25 -6 -9 -10 0 -13 28 -3 36 -2
40 9 25 7 -10 13 -23 13 -28z m43 -115 c9 -15 38 -52 64 -81 32 -36 47 -60 44
-74 -3 -19 -47 -104 -61 -116 -3 -3 -6 -12 -8 -20 -4 -19 -97 -173 -130 -217
-13 -18 -28 -33 -33 -33 -5 0 -9 32 -9 70 0 39 3 70 8 70 4 0 8 25 9 56 2 66
26 193 55 289 30 100 33 103 61 56z m-1203 -146 c37 -113 111 -263 188 -382 8
-13 10 -23 5 -23 -33 0 -204 346 -228 460 -12 56 10 23 35 -55z m320 65 c31
-13 35 -34 46 -220 4 -52 10 -99 15 -104 12 -14 11 -49 -1 -41 -5 3 -10 1 -10
-4 0 -6 5 -11 10 -11 6 0 10 -18 10 -40 0 -38 -2 -40 -29 -40 -23 0 -32 7 -43
30 -7 17 -16 30 -20 30 -5 0 -8 9 -8 20 0 11 -4 20 -10 20 -5 0 -10 6 -10 13
0 6 -9 23 -20 37 -11 14 -20 34 -20 46 0 11 -9 29 -20 39 -12 10 -18 25 -16
32 3 7 1 13 -5 13 -6 0 -8 8 -5 17 4 10 4 14 0 10 -9 -9 -54 98 -54 129 0 25
7 27 104 32 32 2 71 -2 86 -8z m67 -97 c-3 -10 -5 -4 -5 12 0 17 2 24 5 18 2
-7 2 -21 0 -30z m10 -80 c-3 -10 -5 -2 -5 17 0 19 2 27 5 18 2 -10 2 -26 0
-35z m10 -100 c-2 -16 -4 -3 -4 27 0 30 2 43 4 28 2 -16 2 -40 0 -55z m-197
-370 c-37 -38 -84 -99 -105 -137 -21 -38 -41 -64 -43 -58 -7 21 70 135 134
200 34 34 66 62 71 62 5 0 -21 -30 -57 -67z"/>
<path d="M1808 2193 c6 -2 18 -2 25 0 6 3 1 5 -13 5 -14 0 -19 -2 -12 -5z"/>
<path d="M1778 2103 c12 -2 30 -2 40 0 9 3 -1 5 -23 4 -22 0 -30 -2 -17 -4z"/>
<path d="M1723 1733 c9 -2 23 -2 30 0 6 3 -1 5 -18 5 -16 0 -22 -2 -12 -5z"/>
<path d="M1700 1670 c0 -5 14 -10 30 -10 17 0 30 5 30 10 0 6 -13 10 -30 10
-16 0 -30 -4 -30 -10z"/>
<path d="M2010 2230 l-25 -8 25 -1 c14 0 32 4 40 9 13 9 13 10 0 9 -8 -1 -26
-5 -40 -9z"/>
<path d="M423 2790 c0 -36 2 -50 4 -32 2 17 2 47 0 65 -2 17 -4 3 -4 -33z"/>
<path d="M443 2770 c0 -25 2 -35 4 -22 2 12 2 32 0 45 -2 12 -4 2 -4 -23z"/>
<path d="M868 2743 c6 -2 18 -2 25 0 6 3 1 5 -13 5 -14 0 -19 -2 -12 -5z"/>
<path d="M298 2703 c7 -3 16 -2 19 1 4 3 -2 6 -13 5 -11 0 -14 -3 -6 -6z"/>
<path d="M1060 2675 c0 -3 9 -24 21 -47 34 -68 85 -236 109 -363 27 -140 29
-149 35 -143 15 15 -70 363 -116 475 -27 63 -49 99 -49 78z"/>
<path d="M835 2587 c-24 -24 -36 -48 -45 -92 -14 -68 -9 -204 11 -307 l14 -68
152 0 c84 0 153 3 153 8 0 4 -15 68 -34 142 -38 152 -79 255 -97 244 -8 -4 -9
-3 -5 5 15 24 -64 101 -105 101 -6 0 -26 -15 -44 -33z m88 -27 c38 -32 116
-227 101 -251 -4 -7 -3 -9 3 -6 12 7 28 -57 18 -72 -3 -5 -1 -11 5 -13 5 -1
12 -19 15 -38 4 -27 3 -30 -4 -15 -9 19 -10 19 -10 -2 -1 -24 -30 -38 -60 -28
-11 3 -43 7 -73 9 -29 2 -60 5 -68 7 -29 7 -51 245 -31 347 15 74 58 100 104
62z m116 -162 c12 -34 21 -67 20 -72 0 -6 -8 12 -18 39 -27 76 -33 95 -28 95
3 0 15 -28 26 -62z m55 -216 c4 -33 0 -23 -14 33 -11 44 -19 85 -19 90 2 21
28 -77 33 -123z"/>
<path d="M725 2600 c18 -7 84 -3 94 6 2 2 -22 4 -55 3 -41 0 -53 -3 -39 -9z"/>
<path d="M963 2603 c10 -9 97 -10 97 -1 0 4 -23 8 -52 8 -28 0 -48 -3 -45 -7z"/>
<path d="M718 2553 c12 -2 32 -2 45 0 12 2 2 4 -23 4 -25 0 -35 -2 -22 -4z"/>
<path d="M1023 2553 c15 -2 37 -2 50 0 12 2 0 4 -28 4 -27 0 -38 -2 -22 -4z"/>
<path d="M728 2513 c6 -2 18 -2 25 0 6 3 1 5 -13 5 -14 0 -19 -2 -12 -5z"/>
<path d="M1038 2513 c12 -2 32 -2 45 0 12 2 2 4 -23 4 -25 0 -35 -2 -22 -4z"/>
<path d="M708 2443 c12 -2 30 -2 40 0 9 3 -1 5 -23 4 -22 0 -30 -2 -17 -4z"/>
<path d="M2623 2215 c0 -27 2 -38 4 -22 2 15 2 37 0 50 -2 12 -4 0 -4 -28z"/>
<path d="M2653 2215 c0 -27 2 -38 4 -22 2 15 2 37 0 50 -2 12 -4 0 -4 -28z"/>
<path d="M738 2203 c6 -2 18 -2 25 0 6 3 1 5 -13 5 -14 0 -19 -2 -12 -5z"/>
<path d="M618 2183 c12 -2 32 -2 45 0 12 2 2 4 -23 4 -25 0 -35 -2 -22 -4z"/>
<path d="M1163 2073 c9 -2 23 -2 30 0 6 3 -1 5 -18 5 -16 0 -22 -2 -12 -5z"/>
<path d="M2090 1910 c14 -10 26 -17 29 -15 6 7 -27 35 -41 35 -7 0 -2 -9 12
-20z"/>
<path d="M2080 1829 c-7 -11 -10 -23 -7 -25 2 -2 9 7 15 21 14 30 7 33 -8 4z"/>
<path d="M2036 1826 c21 -15 30 -14 19 3 -3 6 -14 11 -23 11 -13 0 -13 -2 4
-14z"/>
<path d="M302 1750 c0 -14 2 -19 5 -12 2 6 2 18 0 25 -3 6 -5 1 -5 -13z"/>
<path d="M1257 1718 c8 -44 13 -48 13 -10 0 17 -4 34 -10 37 -6 4 -7 -6 -3
-27z"/>
<path d="M908 1733 c6 -2 18 -2 25 0 6 3 1 5 -13 5 -14 0 -19 -2 -12 -5z"/>
<path d="M1193 1733 c9 -2 25 -2 35 0 9 3 1 5 -18 5 -19 0 -27 -2 -17 -5z"/>
<path d="M1163 1675 c0 -27 2 -38 4 -22 2 15 2 37 0 50 -2 12 -4 0 -4 -28z"/>
<path d="M1978 1713 c18 -2 45 -2 60 0 15 2 0 4 -33 4 -33 0 -45 -2 -27 -4z"/>
<path d="M1938 1693 c6 -2 18 -2 25 0 6 3 1 5 -13 5 -14 0 -19 -2 -12 -5z"/>
<path d="M931 1676 c12 -10 59 -15 59 -6 0 5 -14 10 -32 10 -17 0 -29 -2 -27
-4z"/>
<path d="M301 1644 c0 -11 3 -14 6 -6 3 7 2 16 -1 19 -3 4 -6 -2 -5 -13z"/>
<path d="M975 1630 c-3 -5 -2 -10 4 -10 5 0 13 5 16 10 3 6 2 10 -4 10 -5 0
-13 -4 -16 -10z"/>
<path d="M1920 1629 c0 -5 5 -7 10 -4 6 3 10 8 10 11 0 2 -4 4 -10 4 -5 0 -10
-5 -10 -11z"/>
<path d="M1924 1583 c-23 -31 -24 -34 -5 -18 22 19 46 55 38 55 -3 0 -17 -17
-33 -37z"/>
<path d="M835 1590 c-3 -5 -1 -10 4 -10 6 0 11 5 11 10 0 6 -2 10 -4 10 -3 0
-8 -4 -11 -10z"/>
<path d="M1488 1593 c12 -2 32 -2 45 0 12 2 2 4 -23 4 -25 0 -35 -2 -22 -4z"/>
<path d="M644 1557 c-28 -15 -11 -34 28 -32 44 2 45 15 2 17 -37 1 -37 1 -6 5
17 2 32 8 32 12 0 11 -33 10 -56 -2z"/>
<path d="M301 1525 c-1 -22 -5 -98 -7 -170 l-4 -130 -61 -3 c-35 -2 -67 2 -74
8 -10 8 -20 8 -37 -3 -13 -7 -35 -13 -50 -12 -15 0 -24 -3 -22 -7 3 -4 23 -8
45 -8 28 0 39 4 39 15 0 8 5 15 11 15 6 0 9 -7 5 -15 -5 -13 21 -15 192 -17
115 -1 153 -4 91 -5 l-106 -4 0 -47 c0 -38 1 -41 6 -17 l6 30 95 3 c59 2 97 7
102 15 4 7 52 14 130 18 68 3 119 6 113 7 -5 1 -53 5 -106 8 -67 5 -98 3 -103
-5 -5 -7 -13 -5 -27 8 -16 15 -34 18 -90 17 l-69 -1 -2 60 -2 60 -3 -57 c-3
-37 -9 -58 -18 -62 -13 -4 -15 15 -15 122 0 70 -4 133 -8 139 -4 7 -8 -29 -9
-80 -2 -188 -7 -197 -13 -22 -3 99 -7 162 -9 140z"/>
<path d="M1818 1503 c7 -3 16 -2 19 1 4 3 -2 6 -13 5 -11 0 -14 -3 -6 -6z"/>
<path d="M1053 1473 c15 -2 37 -2 50 0 12 2 0 4 -28 4 -27 0 -38 -2 -22 -4z"/>
<path d="M1878 1473 c7 -3 16 -2 19 1 4 3 -2 6 -13 5 -11 0 -14 -3 -6 -6z"/>
<path d="M1438 1463 c34 -2 88 -2 120 0 31 2 3 3 -63 3 -66 0 -92 -1 -57 -3z"/>
<path d="M993 1433 c7 -7 128 -5 136 2 2 3 -29 5 -69 5 -40 0 -70 -3 -67 -7z"/>
<path d="M1893 1423 c9 -2 25 -2 35 0 9 3 1 5 -18 5 -19 0 -27 -2 -17 -5z"/>
<path d="M2046 1340 c31 -45 30 -48 -8 -53 -22 -3 -16 -4 17 -4 187 -1 215 -3
215 -18 0 -10 -10 -15 -27 -15 -46 0 -103 -12 -103 -21 0 -5 17 -10 38 -10
l37 -2 -35 -6 c-19 -4 -52 -6 -73 -6 -20 0 -37 -3 -37 -7 0 -5 64 -8 143 -7
88 0 134 4 122 9 -11 5 -33 9 -49 9 -28 1 -28 2 -13 19 21 23 22 56 3 72 -8 6
-34 11 -58 10 -72 -3 -86 -1 -103 16 -22 23 -4 34 55 34 25 0 52 5 60 11 11 7
-18 9 -96 7 l-111 -3 23 -35z m37 -9 c19 -33 22 -45 7 -36 -14 9 -42 65 -32
65 4 0 15 -13 25 -29z m140 -98 c-7 -2 -19 -2 -25 0 -7 3 -2 5 12 5 14 0 19
-2 13 -5z"/>
<path d="M1012 1298 c-19 -19 -14 -48 18 -117 l31 -64 -41 -42 c-70 -71 -73
-147 -9 -220 39 -44 70 -45 123 -5 41 31 42 31 95 -9 51 -38 115 -35 153 8 60
67 19 204 -77 257 -18 10 -18 13 15 92 28 67 31 84 20 97 -18 22 -49 19 -100
-10 -91 -51 -83 -50 -140 -11 -56 39 -70 42 -88 24z m84 -58 c49 -37 62 -37
127 0 55 31 87 38 87 20 0 -6 -12 -38 -26 -72 -28 -66 -24 -101 13 -115 65
-24 108 -159 66 -205 -22 -24 -92 -24 -124 1 -55 42 -64 43 -110 11 -56 -37
-71 -37 -103 1 -21 24 -26 41 -26 83 0 47 3 55 40 91 47 46 49 63 15 139 -14
31 -25 61 -25 66 0 18 26 10 66 -20z"/>
<path d="M1603 1303 c-21 -8 -15 -49 17 -121 23 -49 27 -68 18 -71 -7 -2 -32
-22 -54 -45 -81 -80 -81 -208 0 -241 51 -22 68 -19 126 21 l52 36 38 -31 c49
-39 80 -39 119 0 65 65 65 153 1 221 -22 23 -40 44 -40 47 0 3 14 41 32 85 32
76 32 78 13 92 -23 17 -47 11 -101 -28 l-42 -30 -67 36 c-66 35 -86 40 -112
29z m108 -63 c30 -16 61 -30 69 -30 8 0 35 14 59 30 71 48 77 38 35 -55 -26
-55 -26 -59 -10 -91 8 -19 20 -34 25 -34 16 0 51 -65 51 -94 0 -41 -37 -105
-64 -112 -17 -4 -36 4 -69 27 l-46 32 -41 -27 c-61 -40 -85 -47 -120 -34 -40
13 -48 35 -40 105 6 52 10 59 58 102 29 25 52 53 52 62 0 9 -11 42 -25 73 -14
31 -25 61 -25 66 0 18 36 10 91 -20z"/>
<path d="M2783 1235 c0 -38 2 -53 4 -32 2 20 2 52 0 70 -2 17 -4 1 -4 -38z"/>
<path d="M2803 1235 c0 -38 2 -53 4 -32 2 20 2 52 0 70 -2 17 -4 1 -4 -38z"/>
<path d="M2863 1235 c0 -22 2 -30 4 -17 2 12 2 30 0 40 -3 9 -5 -1 -4 -23z"/>
<path d="M90 1179 c0 -6 25 -19 36 -19 2 0 4 6 4 13 0 7 -9 13 -20 13 -11 0
-20 -3 -20 -7z"/>
<path d="M149 1185 c0 0 -2 -11 -3 -24 -2 -20 -1 -21 8 -9 9 12 25 15 66 12
75 -6 78 -8 83 -46 3 -23 4 -18 5 19 l2 53 -80 -3 c-44 -1 -80 -2 -81 -2z"/>
<path d="M688 1183 c-67 -2 -118 -8 -118 -13 0 -11 13 -13 75 -12 84 1 97 -12
74 -78 -8 -22 -16 -25 -57 -26 -88 -2 -156 -16 -177 -35 -11 -11 -29 -26 -40
-34 -19 -13 -17 -14 20 -14 35 1 37 2 15 9 l-25 8 27 1 c18 1 26 6 23 14 -4 9
11 11 61 9 46 -3 64 0 60 7 -5 8 38 12 146 13 84 1 118 4 75 5 -68 3 -77 6
-73 21 2 9 10 40 16 69 l12 52 81 4 82 3 -80 0 c-44 0 -133 -2 -197 -3z m81
-78 c-15 -68 -34 -87 -24 -24 4 24 12 55 17 68 15 42 20 14 7 -44z"/>
<path d="M2035 1181 c3 -6 28 -11 55 -11 l49 0 16 -52 c24 -81 26 -78 -77 -79
l-93 -2 120 -8 c66 -5 168 -10 227 -11 71 -2 108 -7 108 -14 0 -8 -49 -12
-157 -13 -87 -1 -160 -6 -163 -11 -3 -4 -19 -10 -35 -12 -17 -3 33 -4 110 -3
124 2 130 2 50 -5 l-90 -7 105 3 c58 1 117 3 132 3 15 0 37 10 48 21 43 43 18
58 -109 66 -92 6 -104 9 -111 28 -10 28 -5 52 10 48 7 -1 23 4 36 13 13 8 32
15 43 15 24 0 51 10 51 19 0 3 -55 7 -123 9 -67 1 -142 5 -166 8 -29 4 -41 2
-36 -5z m229 -32 c-4 -7 -22 -9 -49 -4 l-43 6 13 -53 c8 -28 12 -54 10 -57 -7
-7 -10 -1 -27 62 l-15 57 59 0 c40 0 57 -3 52 -11z"/>
<path d="M838 1093 c29 -2 74 -2 100 0 26 2 2 3 -53 3 -55 0 -76 -1 -47 -3z"/>
<path d="M2047 1093 c18 -2 50 -2 70 0 21 2 7 4 -32 4 -38 0 -55 -2 -38 -4z"/>
<path d="M555 990 c39 -9 182 -14 174 -6 -2 2 -51 6 -109 9 -68 3 -91 2 -65
-3z"/>
<path d="M585 961 c22 -7 8 -9 -58 -10 -57 -1 -86 -5 -82 -11 4 -6 37 -9 76
-8 38 2 69 -1 69 -5 0 -5 6 -7 12 -5 7 3 18 0 24 -7 6 -6 27 -10 45 -10 33 1
34 0 40 -50 4 -27 15 -79 26 -115 11 -36 22 -72 24 -80 3 -9 -5 -16 -21 -18
-14 -2 -29 -7 -35 -12 -5 -4 -29 -11 -52 -15 -50 -8 -70 -26 -51 -46 13 -14
16 -58 5 -75 -6 -11 114 -6 178 6 39 8 39 8 -17 9 -31 1 -59 5 -62 9 -2 4 -22
9 -42 10 -21 2 -40 5 -43 7 -2 3 83 5 189 5 173 0 192 2 174 15 -11 8 -41 15
-71 15 -28 0 -55 5 -58 10 -3 6 -11 10 -16 10 -6 0 -8 -3 -6 -7 5 -8 -16 -8
-168 -2 -51 2 -54 3 -17 6 23 2 42 8 42 14 0 5 59 9 138 10 75 1 130 3 122 5
-8 3 -30 26 -47 51 -18 26 -33 40 -33 32 0 -8 6 -21 13 -28 6 -7 8 -12 2 -11
-20 4 -36 0 -31 -9 3 -4 18 -6 33 -4 24 4 25 3 10 -7 -10 -6 -29 -10 -44 -8
-23 3 -30 12 -50 73 -14 38 -27 100 -30 137 -5 63 -7 67 -32 71 -14 2 26 5 89
7 105 2 110 3 60 11 -30 5 -99 7 -153 5 -53 -2 -100 0 -103 5 -3 5 16 9 42 9
73 0 47 9 -41 14 -52 3 -69 2 -50 -3z m174 -115 c1 -24 11 -75 22 -113 30
-101 32 -124 5 -68 -27 58 -46 138 -46 196 0 54 16 42 19 -15z"/>
<path d="M2003 963 c9 -2 23 -2 30 0 6 3 -1 5 -18 5 -16 0 -22 -2 -12 -5z"/>
<path d="M2180 929 c0 -5 5 -7 10 -4 6 3 10 8 10 11 0 2 -4 4 -10 4 -5 0 -10
-5 -10 -11z"/>
<path d="M2206 863 c-7 -74 -46 -214 -67 -240 -7 -8 -4 -13 13 -16 17 -3 15
-5 -9 -6 -18 0 -33 -5 -33 -10 0 -9 82 -21 153 -21 26 0 47 -4 47 -9 0 -5 -82
-7 -185 -4 -125 3 -185 1 -185 -6 0 -7 56 -10 162 -10 97 -1 164 -5 168 -11 8
-13 50 16 50 34 0 17 -14 22 -76 31 -70 11 -74 16 -59 76 8 28 18 56 25 64 6
7 10 17 8 21 -2 8 11 106 17 127 2 4 3 11 4 16 0 4 20 11 42 14 73 10 71 27
-3 27 l-65 0 -7 -77z"/>
<path d="M2043 923 c26 -2 67 -2 90 0 23 2 2 3 -48 3 -49 0 -68 -1 -42 -3z"/>
<path d="M781 896 c9 -9 149 -16 149 -7 0 4 -35 9 -77 10 -42 1 -75 0 -72 -3z"/>
<path d="M2083 893 c20 -2 54 -2 75 0 20 2 3 4 -38 4 -41 0 -58 -2 -37 -4z"/>
<path d="M2181 864 c0 -11 3 -14 6 -6 3 7 2 16 -1 19 -3 4 -6 -2 -5 -13z"/>
<path d="M793 863 c9 -2 23 -2 30 0 6 3 -1 5 -18 5 -16 0 -22 -2 -12 -5z"/>
<path d="M2123 863 c9 -2 23 -2 30 0 6 3 -1 5 -18 5 -16 0 -22 -2 -12 -5z"/>
<path d="M808 827 c12 -7 19 -16 16 -20 -4 -4 -3 -7 3 -7 15 0 22 11 16 26 -3
8 -17 14 -32 14 l-26 -1 23 -12z"/>
<path d="M2083 833 c18 -3 25 -9 20 -16 -5 -8 -2 -8 9 1 8 7 24 10 34 6 16 -5
16 -4 4 5 -8 6 -33 10 -55 9 -30 -1 -33 -2 -12 -5z"/>
<path d="M2621 823 c-1 -14 -9 -23 -23 -26 l-23 -4 23 -2 c16 -1 22 -6 20 -18
-3 -16 7 -18 69 -21 l72 -3 4 -57 3 -57 3 65 c3 57 5 61 11 30 7 -31 7 -32 9
-7 1 22 6 27 26 27 14 0 25 5 25 10 0 11 -12 12 -127 11 -52 -1 -83 2 -83 9 0
6 39 10 105 10 70 0 105 4 105 11 0 7 -14 10 -35 7 -19 -2 -35 -2 -35 2 0 10
-130 5 -131 -5 -1 -5 -5 1 -9 15 -7 23 -8 23 -9 3z"/>
<path d="M1153 823 c9 -2 25 -2 35 0 9 3 1 5 -18 5 -19 0 -27 -2 -17 -5z"/>
<path d="M940 816 c0 -9 40 -13 46 -5 3 5 -6 9 -20 9 -14 0 -26 -2 -26 -4z"/>
<path d="M1423 813 c26 -2 67 -2 90 0 23 2 2 3 -48 3 -49 0 -68 -1 -42 -3z"/>
<path d="M1733 813 c15 -2 37 -2 50 0 12 2 0 4 -28 4 -27 0 -38 -2 -22 -4z"/>
<path d="M1928 813 c12 -2 30 -2 40 0 9 3 -1 5 -23 4 -22 0 -30 -2 -17 -4z"/>
<path d="M2325 805 c-27 -12 -16 -13 100 -14 100 0 126 2 111 11 -29 16 -175
19 -211 3z"/>
<path d="M828 789 c-17 -11 14 -15 62 -9 l45 6 -48 5 c-27 2 -53 1 -59 -2z"/>
<path d="M2166 791 c-4 -7 -5 -15 -2 -18 9 -9 19 4 14 18 -4 11 -6 11 -12 0z"/>
<path d="M1971 785 c8 -7 159 -8 166 -1 4 3 -33 6 -82 6 -49 0 -86 -2 -84 -5z"/>
<path d="M1728 773 c6 -2 18 -2 25 0 6 3 1 5 -13 5 -14 0 -19 -2 -12 -5z"/>
<path d="M1803 773 c20 -2 54 -2 75 0 20 2 3 4 -38 4 -41 0 -58 -2 -37 -4z"/>
<path d="M2410 771 c-124 -6 -120 -21 6 -21 83 0 136 9 128 21 -3 5 -8 8 -12
7 -4 -1 -59 -4 -122 -7z"/>
<path d="M810 760 c-13 -8 -12 -10 3 -10 9 0 17 5 17 10 0 12 -1 12 -20 0z"/>
<path d="M1891 719 c-103 -93 -212 -124 -436 -124 -128 0 -147 2 -222 28 -45
16 -119 51 -164 78 -45 27 -86 49 -91 49 -13 0 -10 -47 6 -83 27 -63 106 -110
252 -148 103 -26 303 -36 402 -19 127 21 278 114 316 195 16 32 14 76 -2 75
-4 -1 -32 -23 -61 -51z m17 -41 c-38 -49 -124 -104 -203 -130 -98 -32 -327
-32 -456 0 -145 36 -223 79 -243 135 -7 22 -10 23 77 -27 117 -66 196 -89 329
-94 127 -5 245 8 342 38 61 19 80 31 140 82 41 36 44 35 14 -4z"/>
<path d="M848 742 c-4 -15 -2 -22 8 -22 8 0 14 4 14 9 0 6 12 12 28 14 21 3
21 4 -5 3 -18 -1 -34 3 -36 8 -2 6 -6 0 -9 -12z"/>
<path d="M1250 749 c-79 -4 -68 -5 65 -6 88 0 151 1 140 3 -47 7 -116 9 -205
3z"/>
<path d="M2065 751 l-30 -7 39 -8 c21 -4 41 -5 44 -2 3 3 -3 7 -14 7 -12 1 -7
4 11 9 27 7 27 8 5 8 -14 0 -38 -3 -55 -7z"/>
<path d="M1063 743 c9 -2 23 -2 30 0 6 3 -1 5 -18 5 -16 0 -22 -2 -12 -5z"/>
<path d="M1480 742 c0 -4 17 -6 38 -4 58 5 62 10 10 11 -27 1 -48 -3 -48 -7z"/>
<path d="M1653 743 c42 -2 112 -2 155 0 42 1 7 3 -78 3 -85 0 -120 -2 -77 -3z"/>
<path d="M2059 693 c-6 -16 -17 -35 -25 -44 -13 -15 -13 -17 1 -23 9 -3 13 -2
10 4 -4 6 9 10 29 10 39 0 49 14 16 23 -10 3 -21 0 -24 -7 -2 -6 -5 -3 -5 7
-1 9 2 17 7 18 48 5 67 19 26 19 -22 0 -26 3 -14 10 10 7 11 10 2 10 -7 0 -17
-12 -23 -27z"/>
<path d="M1798 703 c7 -3 16 -2 19 1 4 3 -2 6 -13 5 -11 0 -14 -3 -6 -6z"/>
<path d="M840 690 c0 -5 5 -10 11 -10 5 0 7 5 4 10 -3 6 -8 10 -11 10 -2 0 -4
-4 -4 -10z"/>
<path d="M2781 674 c0 -11 3 -14 6 -6 3 7 2 16 -1 19 -3 4 -6 -2 -5 -13z"/>
<path d="M1338 633 c7 -3 16 -2 19 1 4 3 -2 6 -13 5 -11 0 -14 -3 -6 -6z"/>
<path d="M1383 633 c9 -2 25 -2 35 0 9 3 1 5 -18 5 -19 0 -27 -2 -17 -5z"/>
<path d="M2007 614 c-17 -17 -4 -24 46 -24 34 1 47 4 37 9 -23 13 -75 22 -83
15z"/>
<path d="M2118 523 c101 -7 50 -19 -75 -18 -71 1 -97 0 -60 -2 40 -2 65 -8 62
-13 -4 -6 1 -10 9 -10 9 0 16 -4 16 -10 0 -5 -7 -7 -15 -4 -18 7 -70 -32 -55
-41 6 -4 22 -4 36 -1 14 4 24 2 24 -4 0 -6 -30 -10 -72 -10 -39 0 -68 -3 -64
-7 8 -8 22 -9 149 -11 53 -1 87 -6 87 -13 0 -6 -41 -9 -117 -8 l-118 2 -60
-36 c-133 -81 -327 -121 -478 -99 -166 24 -334 104 -417 198 -17 20 -33 34
-36 31 -3 -2 23 -30 56 -61 34 -31 57 -56 52 -56 -5 0 -37 25 -71 56 -46 42
-59 59 -49 65 7 5 -56 9 -144 9 -86 0 -159 -4 -162 -9 -8 -12 45 -18 173 -20
l104 -2 50 -45 c43 -39 106 -80 197 -129 34 -19 147 -52 206 -62 91 -14 312
-4 338 15 6 5 39 17 74 27 34 10 62 22 62 26 0 4 10 11 22 15 13 4 35 16 50
27 24 18 44 21 143 22 94 1 118 4 132 18 16 15 16 18 -2 37 -12 13 -31 20 -56
20 -36 0 -65 20 -41 28 7 2 12 10 12 18 0 10 13 14 43 14 48 0 73 12 62 30 -6
9 2 11 29 8 20 -2 36 0 36 4 0 4 -42 7 -92 6 -60 -1 -74 -3 -40 -5z m-1043
-183 c3 -6 -1 -7 -9 -4 -18 7 -21 14 -7 14 6 0 13 -4 16 -10z"/>
<path d="M925 490 c3 -5 31 -10 61 -10 35 0 53 -4 49 -10 -4 -6 -1 -9 7 -8 7
2 12 -3 10 -9 -1 -7 8 -14 20 -14 19 -1 17 -3 -7 -9 -26 -7 -24 -8 19 -9 l50
-1 -54 40 c-47 35 -60 40 -107 40 -34 0 -52 -4 -48 -10z"/>
<path d="M1938 483 c18 -2 45 -2 60 0 15 2 0 4 -33 4 -33 0 -45 -2 -27 -4z"/>
<path d="M1377 464 c-3 -4 -32 -6 -63 -5 -32 0 -54 -2 -51 -6 14 -13 116 -11
121 4 6 14 3 17 -7 7z"/>
<path d="M995 450 c11 -5 27 -9 35 -9 9 0 8 4 -5 9 -11 5 -27 9 -35 9 -9 0 -8
-4 5 -9z"/>
<path d="M1161 451 c-8 -5 5 -7 35 -4 27 3 51 7 53 9 9 8 -75 3 -88 -5z"/>
<path d="M1624 452 c-7 -4 71 -7 171 -7 101 0 187 3 191 8 10 9 -347 9 -362
-1z"/>
<path d="M1408 443 c7 -3 16 -2 19 1 4 3 -2 6 -13 5 -11 0 -14 -3 -6 -6z"/>
<path d="M1448 443 c7 -3 16 -2 19 1 4 3 -2 6 -13 5 -11 0 -14 -3 -6 -6z"/>
<path d="M296 386 c-9 -57 -6 -249 4 -301 5 -25 8 31 9 153 0 105 -1 192 -3
192 -2 0 -7 -20 -10 -44z"/>
<path d="M321 258 c-1 -113 3 -178 9 -178 12 0 12 279 0 325 -4 18 -8 -44 -9
-147z"/>
<path d="M1376 415 c4 -8 11 -15 16 -15 6 0 5 6 -2 15 -7 8 -14 15 -16 15 -2
0 -1 -7 2 -15z"/>
<path d="M1545 419 c-4 -6 -5 -12 -2 -15 2 -3 7 2 10 11 7 17 1 20 -8 4z"/>
<path d="M1848 423 c12 -2 32 -2 45 0 12 2 2 4 -23 4 -25 0 -35 -2 -22 -4z"/>
<path d="M1091 406 c2 -2 24 -6 48 -9 29 -4 40 -2 30 4 -13 8 -88 14 -78 5z"/>
<path d="M1258 403 c6 -2 18 -2 25 0 6 3 1 5 -13 5 -14 0 -19 -2 -12 -5z"/>
<path d="M1786 395 c-11 -8 -28 -15 -38 -15 -10 0 -18 -4 -18 -9 0 -5 -43 -17
-96 -27 -103 -18 -272 -16 -327 5 -17 7 -41 7 -65 2 l-37 -9 36 -1 c63 -2 129
-13 124 -22 -3 -4 -1 -10 4 -13 5 -4 12 -2 16 4 4 7 12 7 25 0 21 -11 210 -12
210 -1 0 4 -15 6 -32 4 -29 -2 -30 -2 -8 5 44 15 122 23 115 12 -4 -6 18 -1
47 11 29 12 76 28 103 35 l50 12 -47 1 c-25 1 -49 -4 -51 -9 -3 -6 -4 -5 -3 2
2 8 26 15 62 19 l59 6 -55 1 c-35 1 -62 -4 -74 -13z m-11 -25 c-3 -5 -12 -10
-18 -10 -7 0 -6 4 3 10 19 12 23 12 15 0z m-48 -26 c-3 -3 -12 -4 -19 -1 -8 3
-5 6 6 6 11 1 17 -2 13 -5z m-274 -31 c-7 -2 -19 -2 -25 0 -7 3 -2 5 12 5 14
0 19 -2 13 -5z m85 0 c-10 -2 -28 -2 -40 0 -13 2 -5 4 17 4 22 1 32 -1 23 -4z"/>
<path d="M1095 380 c33 -7 382 -13 375 -7 -3 3 -95 7 -205 9 -110 2 -186 1
-170 -2z"/>
<path d="M2620 383 c0 -5 -3 -69 -6 -143 -3 -74 -1 -160 4 -190 8 -45 10 -18
11 143 0 108 -1 197 -4 197 -3 0 -5 -3 -5 -7z"/>
<path d="M1543 373 c32 -2 81 -2 110 0 29 2 3 3 -58 3 -60 0 -84 -1 -52 -3z"/>
<path d="M2642 185 c0 -94 3 -161 7 -150 10 26 11 263 1 295 -5 14 -8 -48 -8
-145z"/>
<path d="M1270 326 c0 -2 7 -7 16 -10 8 -3 12 -2 9 4 -6 10 -25 14 -25 6z"/>
<path d="M1660 320 c-9 -6 -10 -10 -3 -10 6 0 15 5 18 10 8 12 4 12 -15 0z"/>
<path d="M440 97 c0 -60 4 -97 10 -97 10 0 4 178 -6 189 -2 2 -4 -39 -4 -92z"/>
<path d="M416 118 c-9 -77 -7 -118 4 -118 6 0 10 35 10 85 0 47 -2 85 -4 85
-2 0 -6 -24 -10 -52z"/>
</g>
</svg>
